<?xml version="1.0" encoding="utf-8"?>
<!-- Generator: Adobe Illustrator 15.0.0, SVG Export Plug-In . SVG Version: 6.00 Build 0)  -->
<!DOCTYPE svg PUBLIC "-//W3C//DTD SVG 1.1//EN" "http://www.w3.org/Graphics/SVG/1.1/DTD/svg11.dtd">
<svg version="1.1" id="图层_1" xmlns="http://www.w3.org/2000/svg" xmlns:xlink="http://www.w3.org/1999/xlink" x="0px" y="0px"
	 width="24px" height="194px" viewBox="0 0 24 194" enable-background="new 0 0 24 194" xml:space="preserve">
<rect opacity="0" fill="#E2E2E2" width="24" height="24"/>
<g>
	<path fill="#848484" d="M20.848,21.076H3.006c-0.986,0-1.789-0.808-1.789-1.801V7.482c0-0.995,0.802-1.802,1.789-1.802h4.09v0.978
		h-4.09c-0.447,0-0.811,0.369-0.811,0.824v11.793c0,0.454,0.363,0.824,0.811,0.824h17.842c0.447,0,0.811-0.37,0.811-0.824V7.482
		c0-0.455-0.363-0.824-0.811-0.824h-6.227V5.68h6.227c0.986,0,1.788,0.807,1.788,1.802v11.793
		C22.636,20.268,21.834,21.076,20.848,21.076z M13.781,3.965H7.935V2.988h5.846V3.965z"/>
</g>
<g>
	<path fill="#848484" d="M11.927,17.985c-2.516,0-4.563-2.066-4.563-4.606c0-2.539,2.047-4.604,4.563-4.604s4.562,2.065,4.562,4.604
		C16.488,15.919,14.442,17.985,11.927,17.985z M11.927,9.752c-1.977,0-3.584,1.627-3.584,3.627c0,2,1.608,3.628,3.584,3.628
		s3.585-1.628,3.585-3.628C15.512,11.379,13.903,9.752,11.927,9.752z"/>
</g>
<g>
	<path fill="#848484" d="M19.58,10.322c-0.824,0-1.495-0.67-1.495-1.495c0-0.825,0.671-1.496,1.495-1.496s1.496,0.671,1.496,1.496
		C21.076,9.652,20.404,10.322,19.58,10.322z M19.58,8.31c-0.285,0-0.518,0.232-0.518,0.518s0.232,0.517,0.518,0.517
		s0.518-0.231,0.518-0.517S19.865,8.31,19.58,8.31z"/>
</g>
<rect y="34" opacity="0" fill="#E2E2E2" width="23.999" height="24"/>
<g>
	<g>
		<path fill="#848484" d="M23.822,54.555H0.211V37.906h23.611V54.555z M1.189,53.576h21.657V38.884H1.189V53.576z"/>
	</g>
	<g>
		<polygon fill="#848484" points="1.046,51.018 0.354,50.325 8.003,42.677 14.863,49.535 18.883,45.517 23.513,50.146 22.82,50.838 
			18.883,46.9 14.863,50.919 8.003,44.06 		"/>
	</g>
	<g>
		<path fill="#848484" d="M16.26,45.435c-1.22,0-2.213-0.994-2.213-2.213c0-1.221,0.993-2.213,2.213-2.213
			c1.221,0,2.213,0.993,2.213,2.213C18.473,44.441,17.48,45.435,16.26,45.435z M16.26,41.985c-0.681,0-1.234,0.555-1.234,1.236
			c0,0.68,0.554,1.236,1.234,1.236c0.682,0,1.235-0.556,1.235-1.236C17.495,42.54,16.941,41.985,16.26,41.985z"/>
	</g>
</g>
<rect y="68" opacity="0" fill="#E2E2E2" width="23.999" height="24"/>
<g>
	<g>
		<path fill="#848484" d="M22.369,83.506H1.804V70.098h20.565V83.506z M2.692,82.617H21.48v-11.63H2.692V82.617z"/>
	</g>
	<g>
		<g>
			<rect x="4.371" y="72.985" fill="#848484" width="1.415" height="1.415"/>
			<path fill="#848484" d="M6.007,74.621H4.148v-1.857h1.858V74.621z M4.593,74.178h0.97v-0.97h-0.97V74.178z"/>
		</g>
		<g>
			<rect x="4.371" y="75.912" fill="#848484" width="1.415" height="1.414"/>
			<path fill="#848484" d="M6.007,77.549H4.148v-1.859h1.858V77.549z M4.593,77.104h0.97v-0.971h-0.97V77.104z"/>
		</g>
		<g>
			<rect x="4.371" y="78.838" fill="#848484" width="1.415" height="1.414"/>
			<path fill="#848484" d="M6.007,80.475H4.148v-1.859h1.858V80.475z M4.593,80.029h0.97v-0.969h-0.97V80.029z"/>
		</g>
	</g>
	<g>
		<g>
			<rect x="7.874" y="72.985" fill="#848484" width="1.416" height="1.415"/>
			<path fill="#848484" d="M9.512,74.621h-1.86v-1.857h1.86V74.621z M8.096,74.178h0.971v-0.97H8.096V74.178z"/>
		</g>
		<g>
			<rect x="7.874" y="75.912" fill="#848484" width="1.416" height="1.414"/>
			<path fill="#848484" d="M9.512,77.549h-1.86v-1.859h1.86V77.549z M8.096,77.104h0.971v-0.971H8.096V77.104z"/>
		</g>
		<g>
			<rect x="7.874" y="78.838" fill="#848484" width="8.425" height="1.414"/>
			<path fill="#848484" d="M16.521,80.475h-8.87v-1.859h8.87V80.475z M8.096,80.029h7.98v-0.969h-7.98V80.029z"/>
		</g>
	</g>
	<g>
		<g>
			<rect x="11.379" y="72.985" fill="#848484" width="1.415" height="1.415"/>
			<path fill="#848484" d="M13.016,74.621h-1.859v-1.857h1.859V74.621z M11.601,74.178h0.971v-0.97h-0.971V74.178z"/>
		</g>
		<g>
			<rect x="11.379" y="75.912" fill="#848484" width="1.415" height="1.414"/>
			<path fill="#848484" d="M13.016,77.549h-1.859v-1.859h1.859V77.549z M11.601,77.104h0.971v-0.971h-0.971V77.104z"/>
		</g>
		<g>
			<rect x="11.379" y="78.838" fill="#848484" width="1.415" height="1.414"/>
			<path fill="#848484" d="M13.016,80.475h-1.859v-1.859h1.859V80.475z M11.601,80.029h0.971v-0.969h-0.971V80.029z"/>
		</g>
	</g>
	<g>
		<g>
			<rect x="14.885" y="72.985" fill="#848484" width="1.414" height="1.415"/>
			<path fill="#848484" d="M16.521,74.621h-1.859v-1.857h1.859V74.621z M15.106,74.178h0.97v-0.97h-0.97V74.178z"/>
		</g>
		<g>
			<rect x="14.885" y="75.912" fill="#848484" width="1.414" height="1.414"/>
			<path fill="#848484" d="M16.521,77.549h-1.859v-1.859h1.859V77.549z M15.106,77.104h0.97v-0.971h-0.97V77.104z"/>
		</g>
		<g>
			<rect x="14.885" y="78.838" fill="#848484" width="1.414" height="1.414"/>
			<path fill="#848484" d="M16.521,80.475h-1.859v-1.859h1.859V80.475z M15.106,80.029h0.97v-0.969h-0.97V80.029z"/>
		</g>
	</g>
	<g>
		<g>
			<rect x="18.388" y="72.985" fill="#848484" width="1.415" height="1.415"/>
			<path fill="#848484" d="M20.025,74.621h-1.859v-1.857h1.859V74.621z M18.61,74.178h0.97v-0.97h-0.97V74.178z"/>
		</g>
		<g>
			<rect x="18.388" y="75.912" fill="#848484" width="1.415" height="1.414"/>
			<path fill="#848484" d="M20.025,77.549h-1.859v-1.859h1.859V77.549z M18.61,77.104h0.97v-0.971h-0.97V77.104z"/>
		</g>
		<g>
			<rect x="18.388" y="78.838" fill="#848484" width="1.415" height="1.414"/>
			<path fill="#848484" d="M20.025,80.475h-1.859v-1.859h1.859V80.475z M18.61,80.029h0.97v-0.969h-0.97V80.029z"/>
		</g>
	</g>
</g>
<g>
	<g>
		
			<rect x="7.512" y="88.757" transform="matrix(0.7072 0.707 -0.707 0.7072 65.9181 18.7757)" fill="#848484" width="5.554" height="0.445"/>
	</g>
	<g>
		
			<rect x="13.995" y="86.201" transform="matrix(0.7071 0.7071 -0.7071 0.7071 67.0819 16.0079)" fill="#848484" width="0.445" height="5.555"/>
	</g>
</g>
<rect y="102" opacity="0" fill="#E2E2E2" width="24" height="24"/>
<g>
	<g>
		<g>
			<rect x="6.036" y="113.448" fill="#848484" width="11.909" height="0.889"/>
		</g>
		<g>
			<rect x="11.546" y="107.938" fill="#848484" width="0.889" height="11.91"/>
		</g>
	</g>
	<g>
		<path fill="#848484" d="M11.991,124.866c-6.051,0-10.974-4.923-10.974-10.974S5.94,102.92,11.991,102.92
			c6.05,0,10.973,4.922,10.973,10.973S18.041,124.866,11.991,124.866z M11.991,103.809c-5.561,0-10.084,4.524-10.084,10.084
			c0,5.562,4.524,10.085,10.084,10.085c5.56,0,10.084-4.523,10.084-10.085C22.075,108.333,17.551,103.809,11.991,103.809z"/>
	</g>
</g>
<rect y="136" opacity="0" width="24" height="24"/>
<rect y="170" opacity="0" width="24" height="24"/>
<g id="图层_1_1_">
	<g>
		<path fill="#AAAAAA" d="M11.356,155.997c-2.253,0-4.371-0.878-5.965-2.472c-3.289-3.289-3.289-8.642,0-11.931
			c1.593-1.593,3.711-2.47,5.965-2.47c2.253,0,4.372,0.877,5.964,2.47c1.594,1.595,2.471,3.712,2.471,5.966
			c0,2.252-0.877,4.371-2.471,5.963C15.727,155.117,13.609,155.997,11.356,155.997z M11.356,140.422c-1.907,0-3.7,0.743-5.048,2.09
			c-2.783,2.784-2.783,7.313,0,10.096c1.348,1.351,3.141,2.092,5.048,2.092s3.7-0.741,5.048-2.092c1.35-1.349,2.09-3.141,2.09-5.045
			c0-1.908-0.742-3.701-2.09-5.05C15.055,141.165,13.262,140.422,11.356,140.422z"/>
	</g>
	<g>
		<path fill="#AAAAAA" d="M21.697,158.551c-0.166,0-0.332-0.063-0.459-0.189l-4.834-4.836c-0.254-0.252-0.254-0.664,0-0.916
			c0.252-0.254,0.664-0.254,0.916,0l4.836,4.836c0.252,0.252,0.252,0.664,0,0.916C22.027,158.488,21.861,158.551,21.697,158.551z"/>
	</g>
</g>
<g>
	<g>
		<g>
			<path fill="#FFB600" d="M12,192c-0.165,0-0.323-0.066-0.439-0.184l-3.229-3.227H5.178c-1.752,0-3.178-1.427-3.178-3.18v-10.23
				c0-1.754,1.426-3.18,3.178-3.18H18.82c1.753,0,3.18,1.426,3.18,3.18v10.23c0,1.753-1.427,3.18-3.18,3.18h-3.153l-3.229,3.229
				C12.322,191.934,12.164,192,12,192z M5.178,173.241c-1.068,0-1.937,0.868-1.937,1.938v10.23c0,1.068,0.869,1.938,1.937,1.938
				h3.411c0.165,0,0.322,0.066,0.438,0.182L12,190.501l2.971-2.972c0.117-0.115,0.275-0.182,0.439-0.182h3.41
				c1.068,0,1.938-0.869,1.938-1.938V175.18c0-1.068-0.869-1.938-1.938-1.938H5.178z"/>
		</g>
	</g>
	<g>
		<path fill="#FFB600" d="M17.115,177.504H6.883c-0.343,0-0.621-0.277-0.621-0.621c0-0.343,0.278-0.621,0.621-0.621h10.232
			c0.344,0,0.621,0.278,0.621,0.621C17.736,177.227,17.459,177.504,17.115,177.504z"/>
	</g>
	<g>
		<path fill="#FFB600" d="M12.854,180.915H6.883c-0.343,0-0.621-0.278-0.621-0.621s0.278-0.621,0.621-0.621h5.969
			c0.344,0,0.621,0.277,0.621,0.621C13.473,180.637,13.195,180.915,12.854,180.915z"/>
	</g>
	<g>
		<path fill="#FFB600" d="M15.41,184.326H6.883c-0.343,0-0.621-0.278-0.621-0.621c0-0.342,0.278-0.62,0.621-0.62h8.527
			c0.342,0,0.621,0.278,0.621,0.62C16.031,184.048,15.752,184.326,15.41,184.326z"/>
	</g>
</g>
</svg>
