<?xml version="1.0" encoding="utf-8"?>
<!-- Generator: Adobe Illustrator 15.0.0, SVG Export Plug-In . SVG Version: 6.00 Build 0)  -->
<!DOCTYPE svg PUBLIC "-//W3C//DTD SVG 1.1//EN" "http://www.w3.org/Graphics/SVG/1.1/DTD/svg11.dtd">
<svg version="1.1" id="图层_1" xmlns="http://www.w3.org/2000/svg" xmlns:xlink="http://www.w3.org/1999/xlink" x="0px" y="0px"
	 width="20px" height="72px" viewBox="0 0 20 72" enable-background="new 0 0 20 72" xml:space="preserve">
<g>
	<g>
		<path fill="#FFFFFF" d="M8.113,16.05c-0.464,0-0.879-0.227-1.093-0.422l-0.837-0.851c-0.264-0.234-0.451-0.68-0.451-1.109
			c0-0.413,0.191-0.863,0.475-1.121l4.718-4.753l0.369,0.738c0.164,0.328,0.371,0.515,0.659,0.772
			c0.099,0.09,0.204,0.183,0.309,0.286l0.104,0.105c0.226,0.234,0.441,0.455,0.901,0.619l0.877,0.311l-4.914,4.98
			C8.959,15.877,8.521,16.05,8.113,16.05z M10.682,9.723l-3.656,3.682c-0.05,0.05-0.107,0.164-0.107,0.263
			c0,0.108,0.056,0.224,0.086,0.256l0.838,0.85c0.026,0.022,0.169,0.09,0.271,0.09c0.114,0,0.242-0.063,0.278-0.096l3.691-3.741
			c-0.247-0.175-0.422-0.355-0.567-0.506l-0.084-0.086c-0.088-0.085-0.181-0.167-0.27-0.249
			C11.001,10.043,10.837,9.897,10.682,9.723z"/>
	</g>
	<g>
		<path fill="#FFFFFF" d="M8.995,13.725c0.152-0.152,0.152-0.32,0.152-0.474c0-0.167,0-0.319-0.152-0.473
			c-0.151-0.151-0.305-0.151-0.473-0.151c-0.151,0-0.319,0-0.472,0.151c-0.151,0.154-0.151,0.306-0.151,0.473
			c0,0.154,0,0.322,0.151,0.474c0.153,0.153,0.321,0.153,0.472,0.153C8.69,13.878,8.844,13.878,8.995,13.725z"/>
	</g>
	<g>
		<path fill="#FFFFFF" d="M15.83,10.003c-1.033,0-1.984-0.396-2.998-1.247c-0.912-0.75-1.32-1.693-1.32-3.058
			c0-1.03,0.396-1.982,1.245-2.997l0.036-0.039c0.861-0.862,1.855-1.282,3.037-1.282c0.309,0,0.827,0,1.235,0.214
			c0.072,0.036,0.166,0.077,0.262,0.119c0.201,0.088,0.395,0.172,0.551,0.275c0.212,0.078,0.467,0.281,0.467,0.812
			c0,0.327-0.092,0.464-0.287,0.679l-0.061,0.068l-2.135,1.248v1.098l0.924,0.501c0.096-0.058,0.215-0.133,0.352-0.226
			c0.201-0.136,0.394-0.237,0.563-0.328c0.195-0.103,0.364-0.192,0.469-0.291l0.055-0.053l0.737-0.405h0.151
			c0.378,0,0.622,0.165,0.706,0.471C19.942,5.712,20,5.855,20,6.114C20,6.4,20,6.79,19.799,7.19
			c-0.256,0.616-0.699,1.488-1.602,2.043C17.615,9.569,16.755,10.003,15.83,10.003z M13.65,3.484
			c-0.659,0.791-0.952,1.475-0.952,2.215c0,1.003,0.258,1.625,0.891,2.146c0.803,0.674,1.492,0.973,2.24,0.973
			c0.487,0,1.047-0.191,1.761-0.602c0.455-0.281,0.816-0.761,1.121-1.5l0.022-0.049c0.014-0.025,0.024-0.05,0.033-0.077
			C18.603,6.707,18.427,6.8,18.255,6.89c-0.15,0.08-0.307,0.162-0.452,0.262c-0.44,0.298-0.735,0.447-0.748,0.452l-0.276,0.138
			l-2.103-1.143V4.116l2.218-1.297c-0.014-0.006-0.028-0.013-0.041-0.018c-0.116-0.051-0.23-0.102-0.328-0.15
			c-0.159-0.083-0.521-0.083-0.694-0.083C14.977,2.568,14.281,2.859,13.65,3.484z"/>
	</g>
	<g>
		<path fill="none" d="M1.31,4.346v11.795c0,1.083,0.883,1.965,1.967,1.965h13.229c1.084,0,1.966-0.882,1.966-1.965V9.348
			l-1.119,0.625l-5.27-6.666l1.667-0.927H4.462C2.193,2.38,1.31,3.262,1.31,4.346z"/>
	</g>
	<g>
		<circle fill="#FFFFFF" cx="3.513" cy="6.314" r="0.852"/>
	</g>
	<g>
		<circle fill="#FFFFFF" cx="6.058" cy="6.314" r="0.852"/>
	</g>
	<g>
		<circle fill="#FFFFFF" cx="8.627" cy="6.314" r="0.852"/>
	</g>
	<g>
		<path fill="#FFFFFF" d="M18.076,16.141c0,1.083-0.882,1.965-1.966,1.965H3.277c-1.084,0-1.967-0.882-1.967-1.965V4.346
			c0-1.084,0.883-1.966,1.967-1.966h7.495l1.076-1.311h-8.57C1.47,1.07,0,2.54,0,4.346v11.795c0,1.806,1.47,3.276,3.277,3.276H16.11
			c1.807,0,3.277-1.471,3.277-3.276V10.39l-1.312,0.732V16.141z"/>
	</g>
	<g>
		<path fill="#040000" d="M18.472,9.348"/>
	</g>
	<g>
		<path fill="#040000" d="M12.563,2.38"/>
	</g>
</g>
<g>
	<g>
		<path fill="#FFFFFF" d="M3.865,43.931c-1.1,0-1.995-0.894-1.995-1.994V29.322c0-1.099,0.895-1.994,1.995-1.994h11.961
			c1.099,0,1.993,0.895,1.993,1.994v5.688l1.33,1.09v-6.778c0-1.832-1.492-3.322-3.323-3.322H3.865
			c-1.832,0-3.323,1.491-3.323,3.322v12.615c0,1.832,1.491,3.322,3.323,3.322h4.902l-0.742-1.329H3.865z"/>
	</g>
	<g>
		<g>
			<path fill="#FFFFFF" d="M14.105,29.544H7.668c-0.367,0-0.665,0.298-0.665,0.665s0.297,0.665,0.665,0.665h6.438
				c0.369,0,0.666-0.298,0.666-0.665S14.475,29.544,14.105,29.544z"/>
		</g>
		<g>
			<path fill="#FFFFFF" d="M5.196,29.544H4.728c-0.366,0-0.664,0.298-0.664,0.665s0.298,0.665,0.664,0.665h0.468
				c0.367,0,0.665-0.298,0.665-0.665S5.563,29.544,5.196,29.544z"/>
		</g>
	</g>
	<g>
		<g>
			<path fill="#FFFFFF" d="M14.105,32.745H7.668c-0.367,0-0.665,0.298-0.665,0.664c0,0.367,0.297,0.664,0.665,0.664h6.438
				c0.369,0,0.666-0.297,0.666-0.664C14.771,33.042,14.475,32.745,14.105,32.745z"/>
		</g>
		<g>
			<path fill="#FFFFFF" d="M5.196,32.745H4.728c-0.366,0-0.664,0.298-0.664,0.664c0,0.367,0.298,0.664,0.664,0.664h0.468
				c0.367,0,0.665-0.297,0.665-0.664C5.861,33.042,5.563,32.745,5.196,32.745z"/>
		</g>
	</g>
	<g>
		<g>
			<path fill="#FFFFFF" d="M9.796,35.95H7.668c-0.367,0-0.665,0.298-0.665,0.664c0,0.367,0.297,0.666,0.665,0.666h1.059"/>
		</g>
		<g>
			<path fill="#FFFFFF" d="M5.196,35.95H4.728c-0.366,0-0.664,0.298-0.664,0.664c0,0.367,0.298,0.666,0.664,0.666h0.468
				c0.367,0,0.665-0.299,0.665-0.666C5.861,36.248,5.563,35.95,5.196,35.95z"/>
		</g>
	</g>
	<g>
		<path fill="#FFFFFF" d="M14.505,46c-2.731,0-4.954-2.222-4.954-4.953c0-2.731,2.223-4.954,4.954-4.954
			c2.731,0,4.953,2.223,4.953,4.954C19.458,43.778,17.236,46,14.505,46z M14.505,37.295c-2.068,0-3.751,1.683-3.751,3.752
			c0,2.067,1.683,3.75,3.751,3.75s3.751-1.683,3.751-3.75C18.256,38.979,16.573,37.295,14.505,37.295z"/>
	</g>
	<g>
		<rect x="13.924" y="40.286" fill="#FFFFFF" width="1.162" height="3.384"/>
	</g>
	<g>
		<rect x="13.924" y="38.424" fill="#FFFFFF" width="1.162" height="0.99"/>
	</g>
</g>
<g>
	<g>
		<g>
			<path fill="#FFFFFF" d="M2.582,68.376L2.54,65.497C1.093,65.211,0,63.934,0,62.404v-6.359c0-1.739,1.414-3.152,3.152-3.152h9.893
				c1.738,0,3.151,1.413,3.151,3.152v6.359c0,1.738-1.413,3.152-3.151,3.152H7.553L2.582,68.376z M3.152,54.134
				c-1.054,0-1.911,0.857-1.911,1.911v6.359c0,1.054,0.857,1.911,1.911,1.911h0.612l0.028,1.946l3.434-1.946h5.82
				c1.053,0,1.909-0.857,1.909-1.911v-6.359c0-1.054-0.856-1.911-1.909-1.911H3.152z"/>
		</g>
	</g>
	<g>
		<g>
			<g>
				<circle fill="#FFFFFF" cx="5.075" cy="59.234" r="0.796"/>
			</g>
		</g>
		<g>
			<g>
				<circle fill="#FFFFFF" cx="8.099" cy="59.234" r="0.796"/>
			</g>
		</g>
		<g>
			<g>
				<circle fill="#FFFFFF" cx="11.122" cy="59.234" r="0.796"/>
			</g>
		</g>
	</g>
	<g>
		<g>
			<path fill="#FFFFFF" d="M17.773,71.561l-4.393-2.491H8.668c-1.545,0-2.802-1.257-2.802-2.803v-0.99h1.242v0.99
				c0,0.861,0.7,1.562,1.561,1.562h5.04l2.854,1.618l0.023-1.618h0.611c0.861,0,1.563-0.7,1.563-1.562v-5.483
				c0-0.861-0.701-1.562-1.563-1.562H15.25V57.98h1.946c1.546,0,2.804,1.258,2.804,2.803v5.483c0,1.335-0.938,2.456-2.19,2.735
				L17.773,71.561z"/>
		</g>
	</g>
</g>
</svg>
