<?xml version="1.0" encoding="utf-8"?>
<!-- Generator: Adobe Illustrator 15.0.0, SVG Export Plug-In . SVG Version: 6.00 Build 0)  -->
<!DOCTYPE svg PUBLIC "-//W3C//DTD SVG 1.1//EN" "http://www.w3.org/Graphics/SVG/1.1/DTD/svg11.dtd">
<svg version="1.1" id="图层_1" xmlns="http://www.w3.org/2000/svg" xmlns:xlink="http://www.w3.org/1999/xlink" x="0px" y="0px"
	 width="28px" height="218px" viewBox="0 0 28 218" enable-background="new 0 0 28 218" xml:space="preserve">
<rect opacity="0" fill="#221714" width="28" height="218"/>
<rect opacity="0" fill="#E2E1E1" width="28" height="28"/>
<g>
	<path fill="#FFFFFF" d="M9.052,14.466c-0.341-0.34-0.341-0.893-0.001-1.234l8.34-8.337c0.34-0.339,0.891-0.339,1.232,0l0,0
		c0.34,0.339,0.34,0.893,0,1.234l-8.339,8.337C9.944,14.804,9.392,14.804,9.052,14.466L9.052,14.466z"/>
	<path fill="#FFFFFF" d="M9.052,13.232c0.34-0.342,0.893-0.342,1.232-0.001l8.339,8.34c0.34,0.339,0.34,0.891,0,1.231l0,0
		c-0.342,0.341-0.893,0.341-1.232,0l-8.34-8.338C8.711,14.125,8.711,13.573,9.052,13.232L9.052,13.232z"/>
</g>
<rect y="38" opacity="0" fill="#E2E1E1" width="28" height="28"/>
<g id="图层_1_1_">
	<g>
		<path fill="#FFFFFF" d="M13.371,59.265c-2.253,0-4.371-0.878-5.965-2.473c-3.289-3.288-3.289-8.641,0-11.93
			c1.593-1.593,3.711-2.469,5.965-2.469c2.254,0,4.373,0.876,5.966,2.469c1.593,1.594,2.47,3.713,2.47,5.965
			c0,2.254-0.877,4.372-2.47,5.964C17.741,58.386,15.625,59.265,13.371,59.265z M13.371,43.689c-1.907,0-3.7,0.743-5.048,2.089
			c-2.783,2.785-2.783,7.313,0,10.096c1.348,1.35,3.141,2.092,5.048,2.092s3.7-0.742,5.05-2.092c1.348-1.348,2.089-3.14,2.089-5.046
			c0-1.907-0.742-3.699-2.089-5.049C17.069,44.432,15.277,43.689,13.371,43.689z"/>
	</g>
	<g>
		<path fill="#FFFFFF" d="M23.713,61.818c-0.165,0-0.332-0.063-0.459-0.189l-4.833-4.836c-0.256-0.251-0.256-0.663,0-0.916
			c0.25-0.253,0.663-0.253,0.916,0l4.835,4.836c0.252,0.252,0.252,0.665,0,0.916C24.043,61.755,23.877,61.818,23.713,61.818z"/>
	</g>
	<g>
		<path fill="#FFFFFF" d="M10.3,55.141c-0.055,0-0.11-0.017-0.156-0.053c-0.222-0.169-0.398-0.321-0.556-0.477
			c-1.935-1.937-2.103-5.001-0.39-7.131c0.089-0.11,0.252-0.129,0.365-0.039c0.111,0.09,0.129,0.253,0.041,0.366
			c-1.546,1.923-1.396,4.689,0.352,6.438c0.14,0.138,0.299,0.275,0.503,0.432c0.113,0.086,0.135,0.25,0.048,0.362
			C10.456,55.106,10.378,55.141,10.3,55.141z"/>
	</g>
</g>
<rect y="76" opacity="0" fill="#E2E1E1" width="28" height="28"/>
<g>
	<path fill="#FFFFFF" d="M11.693,92.896c-3.269,0-5.928-2.659-5.928-5.927c0-3.27,2.659-5.929,5.928-5.929
		c3.27,0,5.929,2.659,5.929,5.929C17.622,90.237,14.962,92.896,11.693,92.896z M11.693,82.077c-2.696,0-4.891,2.194-4.891,4.89
		c0,2.698,2.194,4.89,4.891,4.89c2.697,0,4.892-2.192,4.892-4.89C16.585,84.271,14.391,82.077,11.693,82.077z"/>
	<path fill="#FFFFFF" d="M20.167,100.332H3.22v-4.763c0-1.992,2.415-3.705,6.009-4.263l0.162-0.023l0.147,0.071
		c1.362,0.672,2.947,0.672,4.311,0l0.147-0.071l0.162,0.023c3.594,0.558,6.009,2.271,6.009,4.263V100.332z M4.257,99.295h14.872
		v-3.726c0-1.39-2.082-2.728-4.975-3.213c-1.562,0.718-3.36,0.718-4.923,0c-2.893,0.485-4.976,1.825-4.976,3.213L4.257,99.295
		L4.257,99.295z"/>
	<path fill="#FFFFFF" d="M25.353,82.879h-7.259c-0.286,0-0.519-0.232-0.519-0.52c0-0.285,0.231-0.518,0.519-0.518h7.259
		c0.287,0,0.52,0.232,0.52,0.518C25.872,82.646,25.64,82.879,25.353,82.879z"/>
	<path fill="#FFFFFF" d="M25.353,86.097h-5.704c-0.287,0-0.52-0.23-0.52-0.518s0.232-0.52,0.52-0.52h5.704
		c0.287,0,0.52,0.232,0.52,0.52S25.64,86.097,25.353,86.097z"/>
	<path fill="#FFFFFF" d="M25.353,89.314h-4.667c-0.286,0-0.519-0.232-0.519-0.52s0.231-0.52,0.519-0.52h4.667
		c0.287,0,0.52,0.232,0.52,0.52S25.64,89.314,25.353,89.314z"/>
</g>
<rect y="114" opacity="0" fill="#E2E1E1" width="28" height="28"/>
<g id="图层_2_1_">
	<g>
		<g>
			<path fill="#FFFFFF" d="M11.313,138.122c-0.11,0-0.218-0.036-0.309-0.102c-0.132-0.099-0.209-0.252-0.209-0.418v-8.09
				l-8.402-8.402c-0.148-0.149-0.193-0.371-0.113-0.565c0.081-0.194,0.27-0.319,0.479-0.319h22.221c0.209,0,0.397,0.127,0.479,0.319
				c0.08,0.194,0.035,0.417-0.112,0.565l-8.401,8.4v6.537c0,0.229-0.15,0.43-0.367,0.496l-5.113,1.556
				C11.415,138.113,11.364,138.122,11.313,138.122z M4.011,121.263l7.668,7.668c0.097,0.099,0.152,0.229,0.152,0.366v7.607
				l4.075-1.241v-6.368c0-0.137,0.055-0.269,0.151-0.364l7.668-7.668H4.011z"/>
		</g>
		<polygon fill="#FFFFFF" points="26.802,135.378 26.802,139.111 23.063,139.111 		"/>
	</g>
</g>
<rect y="152" opacity="0" fill="#E2E1E1" width="28" height="28"/>
<g>
	<path fill="#FFFFFF" d="M10.884,177.233h-0.21c-0.281,0-0.453-0.143-0.543-0.23c-0.182-0.048-0.325-0.191-0.371-0.375
		c-0.095-0.101-0.221-0.27-0.221-0.536v-4.321c0-0.13,0.049-0.257,0.137-0.353l6.642-7.204l-9.226,6.226
		c-0.148,0.101-0.335,0.116-0.499,0.046l-3.95-1.737c-0.061-0.026-0.115-0.065-0.161-0.112c-0.276-0.281-0.564-0.572-0.564-0.979
		c0-0.656,0.362-1.037,0.765-1.12l20.073-11.677c0.043-0.022,0.089-0.041,0.137-0.055c0.034-0.031,0.077-0.068,0.127-0.102
		c0.085-0.064,0.208-0.113,0.384-0.118h0.002c0.002,0,0.015,0,0.016,0l0,0c0.046-0.002,0.055,0.001,0.08,0.003h0.143
		c0.138,0,0.27,0.055,0.367,0.154c0.224,0.224,0.563,0.563,0.563,1.188c0,0.028-0.003,0.056-0.008,0.084l-3.081,18.692
		c-0.023,0.4-0.323,0.694-0.565,0.932c-0.097,0.095-0.228,0.148-0.362,0.148h-0.622c-0.067,0-0.135-0.014-0.196-0.039l-5.202-2.12
		l-2.638,3.202C11.511,177.233,11.119,177.233,10.884,177.233z M10.789,176.195h0.095c0.188,0,0.195-0.007,0.241-0.055l2.853-3.466
		c0.145-0.176,0.386-0.235,0.596-0.15l5.462,2.227h0.304c0.048-0.053,0.092-0.102,0.11-0.136c0.002-0.015,0.004-0.029,0.006-0.044
		l3.079-18.678c-0.005-0.083-0.026-0.145-0.072-0.211c-0.07,0.052-0.16,0.101-0.273,0.127L3.112,167.486
		c-0.046,0.027-0.096,0.047-0.147,0.059c-0.003,0.017-0.008,0.041-0.01,0.071c0.035,0.055,0.123,0.147,0.196,0.223l3.597,1.582
		l12.671-8.551c0.219-0.146,0.513-0.105,0.684,0.094s0.166,0.494-0.013,0.688l-9.514,10.319v4.011
		c0.029,0.033,0.061,0.07,0.09,0.117C10.715,176.132,10.756,176.166,10.789,176.195z"/>
</g>
<rect y="190" opacity="0" fill="#E2E1E1" width="28" height="28"/>
<g>
	<path fill="#FFFFFF" d="M24.145,209.35c-0.004-0.021-0.016-0.036-0.02-0.055c-0.012-0.191-0.028-0.38-0.061-0.563
		c-0.08-0.456-0.23-0.891-0.443-1.289c-0.742-1.41-2.221-2.375-3.925-2.375c-2.448,0-4.438,1.991-4.438,4.44
		c0,0.022,0.003,0.047,0.003,0.07c-3.576-0.812-6.39-3.646-7.166-7.236c2.412-0.042,4.363-2.014,4.363-4.436
		c0-1.633-0.889-3.058-2.205-3.829c-0.385-0.225-0.803-0.395-1.248-0.496c-0.317-0.072-0.647-0.113-0.988-0.113
		c-0.585,0-1.144,0.115-1.657,0.323c-1.144,0.464-2.046,1.395-2.484,2.551c-0.011-0.003-0.023-0.007-0.035-0.011
		c-0.381,1.271-0.588,2.613-0.588,4.003c0,7.608,6.12,13.809,13.696,13.946c0.085,0,0.169,0.006,0.255,0.006
		c0.661,0,1.306-0.063,1.94-0.155c0.15-0.024,0.302-0.052,0.453-0.084c0.54-0.114,1.075-0.274,1.502-0.505
		c0.306-0.164,0.424-0.55,0.257-0.857s-0.55-0.423-0.86-0.258c-0.472,0.254-1.209,0.41-1.89,0.504
		c-0.46,0.055-0.929,0.088-1.402,0.088c-0.077,0-0.15-0.011-0.229-0.012c-6.78-0.121-12.271-5.585-12.439-12.355
		c-0.002-0.105-0.015-0.208-0.015-0.317c0-1.365,0.227-2.677,0.633-3.908c-0.099,0.302-0.188,0.606-0.263,0.915
		c0.004-0.001,0.008-0.002,0.014-0.002c0.27-1.478,1.559-2.603,3.112-2.603c0.061,0,0.115,0.013,0.173,0.017
		c0.457,0.024,0.885,0.146,1.271,0.347c1.021,0.526,1.728,1.579,1.728,2.807c0,1.747-1.421,3.171-3.171,3.171
		c-0.035,0-0.067-0.01-0.104-0.011c-0.303-0.01-0.592-0.068-0.867-0.157c-0.001,0.001-0.002,0.001-0.002,0.004l0,0
		c-0.026-0.008-0.047-0.021-0.076-0.021c-0.162,0-0.291,0.121-0.31,0.278c0.002,0.026,0.004,0.052,0.005,0.078
		c0.026,0.31,0.059,0.615,0.113,0.918c0.766,4.448,4.27,7.964,8.713,8.75c0.286,0.05,0.575,0.083,0.867,0.11
		c0.051,0.005,0.102,0.007,0.152,0.012c0.15-0.024,0.267-0.151,0.267-0.308c0-0.025-0.008-0.047-0.013-0.068
		c-0.011-0.028-0.022-0.059-0.033-0.087c-0.09-0.253-0.153-0.518-0.179-0.796c-0.005-0.091-0.026-0.178-0.026-0.271
		c0-1.75,1.422-3.173,3.171-3.173c1.297,0,2.411,0.785,2.902,1.902c0.17,0.389,0.269,0.817,0.269,1.271
		c0,0.016-0.006,0.034-0.006,0.053c-0.004,0.269-0.052,0.523-0.121,0.773c-0.072,0.229-0.184,0.499-0.346,0.806
		c-0.022,0.045-0.041,0.086-0.066,0.133c-0.03,0.054-0.042,0.111-0.055,0.171c-0.063,0.267,0.047,0.552,0.298,0.691
		c0.099,0.055,0.206,0.082,0.31,0.082c0.223,0,0.437-0.117,0.554-0.325c0.142-0.253,0.247-0.483,0.34-0.707
		c0.106-0.254,0.19-0.492,0.246-0.7c0.003-0.017,0.008-0.034,0.011-0.049c0.013-0.045,0.018-0.082,0.027-0.122
		C24.184,209.757,24.151,209.41,24.145,209.35 M7.238,201.053c-0.021-0.038-0.054-0.065-0.087-0.091
		C7.186,200.985,7.218,201.015,7.238,201.053"/>
	<path fill="#FFFFFF" d="M24.304,197.643l-2.984,2.986c-0.112,0.11-0.258,0.165-0.401,0.165c-0.145,0-0.291-0.055-0.403-0.165
		c-0.221-0.224-0.221-0.582,0-0.803l2.049-2.048h-6.287c-0.313,0-0.567-0.253-0.567-0.567s0.254-0.568,0.567-0.568h6.325
		l-2.092-2.093c-0.222-0.22-0.222-0.58,0-0.801c0.222-0.223,0.581-0.223,0.803,0l3.035,3.033c0.001,0.003,0.001,0.004,0.002,0.006
		c0.001,0,0.002,0,0.004,0c0.169,0.17,0.207,0.417,0.12,0.622C24.438,197.504,24.381,197.58,24.304,197.643"/>
</g>
</svg>
