<?xml version="1.0" encoding="utf-8"?>
<!-- Generator: Adobe Illustrator 15.0.0, SVG Export Plug-In . SVG Version: 6.00 Build 0)  -->
<!DOCTYPE svg PUBLIC "-//W3C//DTD SVG 1.1//EN" "http://www.w3.org/Graphics/SVG/1.1/DTD/svg11.dtd">
<svg version="1.1" xmlns="http://www.w3.org/2000/svg" xmlns:xlink="http://www.w3.org/1999/xlink" x="0px" y="0px" width="40px"
	 height="64px" viewBox="0 0 40 64" enable-background="new 0 0 40 64" xml:space="preserve">
<g id="图层_2" display="none">
	<rect x="24" display="inline" fill="#231815" width="16" height="16"/>
	<rect display="inline" fill="#231815" width="16" height="16"/>
	<rect y="24" display="inline" fill="#231815" width="16" height="16"/>
	<rect x="24" y="24" display="inline" fill="#231815" width="16" height="16"/>
	<rect y="48" display="inline" fill="#231815" width="16" height="16"/>
	<rect x="24" y="48" display="inline" fill="#231815" width="16" height="16"/>
	<circle display="inline" fill="#0C5394" cx="8" cy="8.001" r="8"/>
	<circle display="inline" fill="#0C5394" cx="8" cy="32.001" r="8"/>
	<circle display="inline" fill="#E0E0E0" cx="32" cy="32" r="8"/>
	<circle display="inline" fill="#B5B5B5" cx="8" cy="56.001" r="8"/>
	<circle display="inline" fill="#B5B5B5" cx="32" cy="56.001" r="8"/>
	<circle display="inline" fill="#0C5394" cx="32" cy="8.001" r="8"/>
</g>
<g id="图层_1">
	<g>
		<path fill="#FFFFFF" d="M12.139,4.203L12.12,4.185c-0.883-0.88-2.318-0.881-3.198-0.003L4.095,8.992l0.039,0.023
			C4.089,9.053,4.075,9.108,4.075,9.17v2.891c0,0.112,0.061,0.19,0.175,0.19h2.899c0.063,0,0.118-0.022,0.156-0.065l0.01,0.014
			l4.828-4.811C13.023,6.512,13.021,5.083,12.139,4.203 M4.879,11.43c-0.109-0.11-0.182-0.141-0.388-0.11V9.534l1.025,0.035
			l0.026,0.984L5.53,10.779h0.014l-0.001,0.017l0.224-0.008l0.99,0.026l0.035,1.025H4.977C5.014,11.633,4.993,11.542,4.879,11.43
			 M10.08,7.112l-3.306,3.295L5.942,10.38L5.911,9.516L9.2,6.237L10.08,7.112z M7.31,11.623c-0.004,0.007-0.006,0.013-0.014,0.02
			c-0.031,0.031-0.063,0.063-0.094,0.093l-0.038-1.09l0.001-0.042l3.208-3.198l0.586,0.583L7.314,11.62l0,0
			C7.313,11.622,7.312,11.622,7.31,11.623 M8.615,5.069l0.293-0.291l2.636,2.627l-0.293,0.292L8.615,5.069z M4.67,8.998
			c0.005-0.005,0.011-0.007,0.016-0.012l3.636-3.624l0.586,0.58L5.681,9.156H5.677L4.547,9.12C4.59,9.08,4.63,9.041,4.67,8.998
			 M11.849,7.1l-0.013,0.013L9.2,4.486l0.014-0.014c0.72-0.716,1.893-0.714,2.614,0.005l0.019,0.018
			C12.567,5.214,12.57,6.383,11.849,7.1"/>
	</g>
	<g>
		<path fill="#FFFFFF" d="M8.001,31.882c-0.324,0-0.632-0.095-0.893-0.275c-0.609-0.399-0.949-1.221-0.949-2.307
			c0-1.015,0.827-1.84,1.842-1.84c1.013,0,1.84,0.825,1.84,1.84c0,1.086-0.34,1.908-0.955,2.312
			C8.631,31.787,8.323,31.882,8.001,31.882z M8.001,28.171c-0.623,0-1.129,0.506-1.129,1.129c0,0.839,0.225,1.449,0.633,1.717
			c0.299,0.207,0.696,0.203,0.983,0.004c0.415-0.272,0.64-0.882,0.64-1.721C9.128,28.677,8.623,28.171,8.001,28.171z"/>
	</g>
	<g>
		<path fill="#FFFFFF" d="M8.001,35.592c-0.867,0-3.695-0.105-3.695-1.469c0-1.379,0.992-1.824,2.098-2.193
			c0.099-0.033,0.4-0.132,0.513-0.713l0.698,0.135C7.49,32,7.148,32.434,6.626,32.606c-1.134,0.377-1.609,0.672-1.609,1.517
			c0,0.433,1.575,0.757,2.984,0.758c1.408-0.001,2.982-0.325,2.982-0.758c0-0.845-0.475-1.14-1.611-1.518
			C8.852,32.434,8.51,32,8.385,31.352l0.698-0.135c0.113,0.581,0.413,0.68,0.512,0.712c1.107,0.369,2.099,0.814,2.099,2.193
			C11.694,35.486,8.867,35.592,8.001,35.592z"/>
	</g>
	<g>
		<g>
			<polygon fill="#FFFFFF" points="35.824,35.167 28.271,35.167 28.271,29.479 31.426,29.479 31.426,30.191 28.982,30.191 
				28.982,34.455 35.112,34.455 35.112,30.191 32.67,30.191 32.67,29.479 35.824,29.479 			"/>
		</g>
		<g>
			<path fill="#FFFFFF" d="M33.025,30.813H31.07v-2.268h1.955V30.813z M31.781,30.102h0.533v-0.844h-0.533V30.102z"/>
		</g>
		<g>
			<rect x="29.87" y="31.39" fill="#FFFFFF" width="0.934" height="1.866"/>
			<path fill="#FFFFFF" d="M31.041,33.494h-1.408v-2.341h1.408V33.494z M30.107,33.019h0.46v-1.391h-0.46V33.019z"/>
		</g>
		<g>
			<rect x="32.048" y="31.153" fill="#FFFFFF" width="1.865" height="0.475"/>
		</g>
		<g>
			<rect x="32.048" y="32.086" fill="#FFFFFF" width="0.934" height="0.475"/>
		</g>
		<g>
			<rect x="32.048" y="33.019" fill="#FFFFFF" width="1.556" height="0.476"/>
		</g>
	</g>
	<g>
		<g>
			<path fill="#FFFFFF" d="M9.431,56.752c-0.341,0-0.684-0.075-1.006-0.227c-0.153-0.074-0.219-0.258-0.146-0.411
				c0.073-0.154,0.257-0.219,0.411-0.147c0.659,0.314,1.448,0.179,1.963-0.336c0.27-0.27,0.44-0.618,0.488-0.992l-0.271-0.27
				l-0.979,0.979c-0.059,0.058-0.137,0.091-0.219,0.091c-0.063,0-0.62-0.01-0.939-0.333c-0.32-0.316-0.33-0.874-0.33-0.937
				c0-0.082,0.033-0.16,0.09-0.219l0.979-0.979l-0.27-0.271c-0.373,0.048-0.721,0.219-0.992,0.489
				c-0.516,0.515-0.65,1.304-0.336,1.964c0.073,0.153,0.008,0.338-0.146,0.41c-0.154,0.074-0.338,0.008-0.411-0.146
				c-0.426-0.896-0.242-1.966,0.457-2.664c0.411-0.411,0.954-0.653,1.53-0.681c0.087-0.003,0.17,0.029,0.232,0.09l0.591,0.591
				c0.058,0.058,0.09,0.136,0.09,0.218s-0.032,0.16-0.09,0.218l-1.098,1.098c0.017,0.131,0.058,0.301,0.139,0.382
				c0.083,0.084,0.254,0.127,0.384,0.144l1.099-1.1c0.115-0.115,0.32-0.115,0.436,0l0.591,0.591c0.061,0.061,0.094,0.146,0.09,0.232
				c-0.029,0.577-0.271,1.121-0.681,1.53C10.641,56.515,10.041,56.752,9.431,56.752z"/>
		</g>
		<g>
			<path fill="#FFFFFF" d="M5.597,59.236c-0.251,0-0.501-0.096-0.693-0.286c-0.391-0.393-0.392-1.015-0.011-1.396l2.487-2.485
				c0.12-0.121,0.315-0.121,0.436,0c0.121,0.121,0.121,0.316,0,0.437L5.33,57.989c-0.141,0.142-0.141,0.373,0,0.515
				c0.152,0.15,0.383,0.15,0.524,0.01l2.485-2.485c0.121-0.12,0.316-0.12,0.436,0c0.121,0.12,0.121,0.315,0,0.436L6.29,58.95
				C6.099,59.141,5.848,59.236,5.597,59.236z"/>
		</g>
	</g>
	<g>
		<g>
			<path fill="#FFFFFF" d="M30.463,59.119h-0.81c-0.156,0-0.284-0.128-0.284-0.285v-5.932c0-0.157,0.128-0.285,0.284-0.285h0.81
				c0.157,0,0.285,0.128,0.285,0.285v5.932C30.748,58.991,30.62,59.119,30.463,59.119z M29.939,58.549h0.238v-5.362h-0.238V58.549z"
				/>
		</g>
		<g>
			<path fill="#FFFFFF" d="M32.081,56.692c-0.567,0-1.642-0.268-1.688-0.278c-0.152-0.038-0.245-0.193-0.207-0.346
				s0.194-0.245,0.346-0.207c0.01,0.003,1.051,0.262,1.549,0.262c0.245,0,0.645-0.066,1.031-0.132
				c0.429-0.071,0.831-0.138,1.125-0.138c0.34,0,0.765,0.094,1.063,0.173v-2.645c-0.26-0.075-0.728-0.195-1.063-0.195
				c-0.246,0-0.646,0.066-1.032,0.132c-0.428,0.07-0.832,0.138-1.124,0.138c-0.567,0-1.642-0.267-1.688-0.278
				c-0.152-0.037-0.245-0.191-0.207-0.344c0.038-0.153,0.193-0.245,0.346-0.208c0.01,0.003,1.051,0.262,1.549,0.262
				c0.245,0,0.645-0.067,1.031-0.132c0.429-0.07,0.831-0.139,1.125-0.139c0.58,0,1.403,0.272,1.438,0.284
				c0.115,0.039,0.194,0.147,0.194,0.271v3.235c0,0.092-0.044,0.178-0.118,0.231s-0.17,0.066-0.257,0.039
				c-0.008-0.003-0.771-0.256-1.258-0.256c-0.246,0-0.646,0.067-1.032,0.131C32.778,56.625,32.373,56.692,32.081,56.692z"/>
		</g>
	</g>
	<g>
		<g>
			<path fill="#FFFFFF" d="M35.032,11.65H29.31V4.048h5.723V11.65z M30.021,10.938h4.299V4.76h-4.299V10.938z"/>
		</g>
		<g>
			<rect x="30.917" y="5.614" fill="#FFFFFF" width="2.507" height="0.712"/>
		</g>
		<g>
			<rect x="30.917" y="6.866" fill="#FFFFFF" width="1.254" height="0.712"/>
		</g>
		<g>
			<rect x="30.917" y="8.12" fill="#FFFFFF" width="1.254" height="0.711"/>
		</g>
		<g>
			<rect x="33.111" y="6.866" fill="#FFFFFF" width="0.313" height="0.712"/>
		</g>
		<g>
			<rect x="33.111" y="8.12" fill="#FFFFFF" width="0.313" height="0.711"/>
		</g>
		<g>
			<rect x="31.544" y="9.373" fill="#FFFFFF" width="1.253" height="0.711"/>
		</g>
	</g>
</g>
</svg>
