<?xml version="1.0" encoding="utf-8"?>
<!-- Generator: Adobe Illustrator 15.0.0, SVG Export Plug-In . SVG Version: 6.00 Build 0)  -->
<!DOCTYPE svg PUBLIC "-//W3C//DTD SVG 1.1//EN" "http://www.w3.org/Graphics/SVG/1.1/DTD/svg11.dtd">
<svg version="1.1" id="图层_1" xmlns="http://www.w3.org/2000/svg" xmlns:xlink="http://www.w3.org/1999/xlink" x="0px" y="0px"
	 width="28px" height="100px" viewBox="0 0 28 100" enable-background="new 0 0 28 100" xml:space="preserve">
<rect opacity="0" fill="#E2E2E2" width="28" height="28"/>
<g>
	<g>
		<path fill="#BABABA" d="M17.064,12.855c0.754-0.813,1.219-1.896,1.219-3.09c0-2.51-2.043-4.553-4.554-4.553
			c-2.511,0-4.553,2.043-4.553,4.553c0,1.194,0.464,2.278,1.218,3.09c-1.914,1.654-3.29,4.692-3.554,8.32
			c-0.01,0.142,0.039,0.282,0.136,0.385c0.097,0.104,0.232,0.163,0.374,0.163h12.759c0.141,0,0.277-0.059,0.374-0.163
			c0.097-0.103,0.146-0.243,0.136-0.385C20.354,17.547,18.979,14.51,17.064,12.855 M13.729,6.233c1.949,0,3.533,1.585,3.533,3.532
			c0,1.948-1.584,3.533-3.533,3.533c-1.948,0-3.532-1.584-3.532-3.533C10.197,7.818,11.781,6.233,13.729,6.233 M7.908,20.703
			c0.34-3.199,1.586-5.826,3.254-7.18c0.731,0.501,1.615,0.796,2.567,0.796c0.952,0,1.835-0.295,2.566-0.796
			c1.668,1.353,2.914,3.98,3.254,7.18H7.908z"/>
	</g>
</g>
<rect y="38" opacity="0" fill="#E2E2E2" width="28" height="28"/>
<g>
	<g>
		<path fill="#BABABA" d="M17.53,60.115h-6.227c-1.574,0-2.854-1.279-2.854-2.854v-5.447c0-1.574,1.28-2.854,2.854-2.854h6.227
			c1.573,0,2.854,1.28,2.854,2.854v5.447C20.385,58.836,19.104,60.115,17.53,60.115z M11.304,49.997
			c-1.002,0-1.817,0.815-1.817,1.817v5.447c0,1.002,0.815,1.816,1.817,1.816h6.227c1.001,0,1.817-0.814,1.817-1.816v-5.447
			c0-1.002-0.816-1.817-1.817-1.817H11.304z"/>
	</g>
	<g>
		<path fill="#BABABA" d="M18.828,49.997h-8.821v-3.632c0-2.411,1.961-4.372,4.372-4.372h0.077c2.412,0,4.373,1.961,4.373,4.372
			V49.997z M11.044,48.96h6.747v-2.595c0-1.839-1.496-3.334-3.335-3.334h-0.077c-1.839,0-3.335,1.496-3.335,3.334V48.96z"/>
	</g>
	<g>
		<path fill="#BABABA" d="M14.417,54.668c-0.715,0-1.297-0.582-1.297-1.297c0-0.716,0.582-1.297,1.297-1.297
			s1.297,0.581,1.297,1.297C15.715,54.086,15.133,54.668,14.417,54.668z M14.417,53.111c-0.143,0-0.26,0.115-0.26,0.26
			c0,0.143,0.117,0.26,0.26,0.26c0.144,0,0.26-0.117,0.26-0.26C14.678,53.227,14.561,53.111,14.417,53.111z"/>
	</g>
	<g>
		<rect x="13.899" y="54.148" fill="#BABABA" width="1.037" height="2.336"/>
	</g>
</g>
<rect y="76" opacity="0" fill="#E2E2E2" width="24" height="24"/>
<g>
	<g>
		<path fill="#A0A0A0" d="M12,99.577c-6.384,0-11.578-5.193-11.578-11.578c0-6.384,5.194-11.577,11.578-11.577
			s11.577,5.193,11.577,11.577C23.577,94.384,18.384,99.577,12,99.577z M12,77.922c-5.557,0-10.078,4.521-10.078,10.077
			c0,5.557,4.521,10.078,10.078,10.078s10.077-4.521,10.077-10.078C22.077,82.443,17.557,77.922,12,77.922z"/>
	</g>
	<g>
		<path fill="#A0A0A0" d="M15.938,88.749c-0.191,0-0.384-0.073-0.53-0.219l-2.954-2.952c-0.293-0.293-0.293-0.769,0-1.062
			s0.768-0.292,1.061,0l2.954,2.952c0.293,0.293,0.293,0.768,0,1.061C16.321,88.676,16.129,88.749,15.938,88.749z"/>
	</g>
	<g>
		<path fill="#A0A0A0" d="M12.983,91.703c-0.191,0-0.384-0.073-0.53-0.22c-0.293-0.293-0.293-0.768,0-1.061l2.954-2.954
			c0.293-0.293,0.768-0.293,1.061,0s0.293,0.768,0,1.061l-2.954,2.954C13.367,91.63,13.176,91.703,12.983,91.703z"/>
	</g>
	<g>
		<path fill="#A0A0A0" d="M15.938,88.749H8.063c-0.414,0-0.75-0.335-0.75-0.75c0-0.413,0.336-0.75,0.75-0.75h7.875
			c0.414,0,0.75,0.337,0.75,0.75C16.688,88.414,16.352,88.749,15.938,88.749z"/>
	</g>
</g>
</svg>
