<?xml version="1.0" encoding="utf-8"?>
<!-- Generator: Adobe Illustrator 15.0.0, SVG Export Plug-In . SVG Version: 6.00 Build 0)  -->
<!DOCTYPE svg PUBLIC "-//W3C//DTD SVG 1.1//EN" "http://www.w3.org/Graphics/SVG/1.1/DTD/svg11.dtd">
<svg version="1.1" id="图层_1" xmlns="http://www.w3.org/2000/svg" xmlns:xlink="http://www.w3.org/1999/xlink" x="0px" y="0px"
	 width="60px" height="60px" viewBox="0 0 60 60" enable-background="new 0 0 60 60" xml:space="preserve">
<g>
	<path fill="#D8D8D8" d="M54.887,55.376H5.114C2.294,55.376,0,53.064,0,50.224V17.326c0-2.841,2.294-5.152,5.114-5.152h11.41
		c0.824,0,1.491,0.667,1.491,1.491c0,0.823-0.667,1.49-1.491,1.49H5.114c-1.176,0-2.133,0.974-2.133,2.171v32.898
		c0,1.197,0.957,2.172,2.133,2.172h49.772c1.176,0,2.133-0.975,2.133-2.172V17.326c0-1.197-0.957-2.171-2.133-2.171H37.514
		c-0.822,0-1.49-0.667-1.49-1.49c0-0.824,0.668-1.491,1.49-1.491h17.373c2.818,0,5.113,2.311,5.113,5.152v32.898
		C60,53.064,57.705,55.376,54.887,55.376z M35.172,7.643H18.865c-0.823,0-1.491-0.667-1.491-1.49c0-0.824,0.667-1.491,1.491-1.491
		h16.307c0.822,0,1.49,0.667,1.49,1.491C36.662,6.976,35.994,7.643,35.172,7.643z"/>
</g>
<g>
	<path fill="#D8D8D8" d="M30,46.747c-7.087,0-12.853-5.819-12.853-12.973c0-7.152,5.766-12.97,12.853-12.97
		c7.088,0,12.854,5.818,12.854,12.97C42.854,40.928,37.088,46.747,30,46.747z M30,23.785c-5.443,0-9.872,4.481-9.872,9.989
		c0,5.51,4.429,9.992,9.872,9.992s9.873-4.482,9.873-9.992C39.873,28.267,35.443,23.785,30,23.785z"/>
</g>
<g>
	<circle fill="#D8D8D8" cx="51.351" cy="21.08" r="2.808"/>
</g>
</svg>
