<?xml version="1.0" encoding="utf-8"?>
<!-- Generator: Adobe Illustrator 15.0.0, SVG Export Plug-In . SVG Version: 6.00 Build 0)  -->
<!DOCTYPE svg PUBLIC "-//W3C//DTD SVG 1.1//EN" "http://www.w3.org/Graphics/SVG/1.1/DTD/svg11.dtd">
<svg version="1.1" id="图层_1" xmlns="http://www.w3.org/2000/svg" xmlns:xlink="http://www.w3.org/1999/xlink" x="0px" y="0px"
	 width="40px" height="40px" viewBox="0 0 40 40" enable-background="new 0 0 40 40" xml:space="preserve">
<g>
	<g>
		<path fill="#FFFFFF" d="M19.378,32.067c-0.179-0.179-0.29-0.426-0.29-0.698l0-22.738c0-0.546,0.443-0.989,0.989-0.989
			c0.546,0,0.989,0.443,0.989,0.989v22.738c0,0.547-0.442,0.989-0.989,0.989C19.805,32.358,19.557,32.247,19.378,32.067z"/>
	</g>
	<g>
		<path fill="#FFFFFF" d="M8.01,20.699C7.831,20.52,7.719,20.273,7.719,20c0.001-0.546,0.443-0.989,0.99-0.989l22.735,0
			c0.547,0,0.989,0.442,0.989,0.989c0,0.546-0.442,0.989-0.987,0.989H8.709C8.436,20.989,8.188,20.878,8.01,20.699z"/>
	</g>
</g>
</svg>
