<?xml version="1.0" encoding="utf-8"?>
<!-- Generator: Adobe Illustrator 15.0.0, SVG Export Plug-In . SVG Version: 6.00 Build 0)  -->
<!DOCTYPE svg PUBLIC "-//W3C//DTD SVG 1.1//EN" "http://www.w3.org/Graphics/SVG/1.1/DTD/svg11.dtd">
<svg version="1.1" id="图层_1" xmlns="http://www.w3.org/2000/svg" xmlns:xlink="http://www.w3.org/1999/xlink" x="0px" y="0px"
	 width="74px" height="174px" viewBox="0 0 74 174" enable-background="new 0 0 74 174" xml:space="preserve">
<g id="图层_2" display="none">
	<rect x="50" y="150" display="inline" opacity="0.45" fill="#A4A4A3" enable-background="new    " width="24" height="24"/>
	<rect y="150" display="inline" opacity="0.45" fill="#A4A4A3" enable-background="new    " width="24" height="24"/>
	<rect x="50" y="100" display="inline" opacity="0.45" fill="#A4A4A3" enable-background="new    " width="24" height="24"/>
	<rect y="100" display="inline" opacity="0.45" fill="#A4A4A3" enable-background="new    " width="24" height="24"/>
	<rect x="50" y="50" display="inline" opacity="0.45" fill="#A4A4A3" enable-background="new    " width="24" height="24.001"/>
	<rect y="50" display="inline" opacity="0.45" fill="#A4A4A3" enable-background="new    " width="24" height="24.001"/>
	<rect x="50" display="inline" opacity="0.45" fill="#A4A4A3" enable-background="new    " width="24" height="24"/>
	<rect display="inline" opacity="0.45" fill="#A4A4A3" enable-background="new    " width="24" height="24"/>
</g>
<g id="图层_1_1_" display="none">
	<g display="inline">
		<g>
			<circle fill="#0C5394" cx="57.402" cy="162.128" r="1.397"/>
			<circle fill="#0C5394" cx="62.186" cy="162.128" r="1.397"/>
			<circle fill="#0C5394" cx="66.969" cy="162.128" r="1.396"/>
			<g>
				<path fill="#0C5394" d="M62.203,171.566c-4.852,0-9.018-3.691-9.503-8.616c-0.251-2.541,0.502-5.026,2.12-6.999
					c1.619-1.975,3.91-3.199,6.449-3.449c2.541-0.252,5.025,0.502,7,2.121c1.973,1.619,3.196,3.909,3.447,6.449
					c0.137,1.373-0.025,2.74-0.484,4.062c-0.121,0.349-0.502,0.532-0.85,0.412c-0.348-0.122-0.531-0.501-0.41-0.851
					c0.395-1.137,0.534-2.313,0.418-3.492c-0.216-2.186-1.27-4.156-2.968-5.549c-1.698-1.395-3.837-2.04-6.022-1.826
					c-2.185,0.217-4.155,1.271-5.549,2.969s-2.041,3.836-1.826,6.021c0.447,4.512,4.48,7.816,8.99,7.375
					c1.957-0.193,3.782-1.09,5.144-2.52c0.253-0.268,0.676-0.275,0.942-0.023c0.267,0.254,0.276,0.677,0.022,0.942
					c-1.58,1.662-3.704,2.701-5.978,2.927C62.831,171.551,62.516,171.566,62.203,171.566z"/>
			</g>
		</g>
	</g>
	<g display="inline">
		<g>
			<circle fill="#A5A5A4" cx="7.402" cy="162.129" r="1.396"/>
			<circle fill="#A5A5A4" cx="12.186" cy="162.129" r="1.396"/>
			<circle fill="#A5A5A4" cx="16.969" cy="162.129" r="1.396"/>
			<g>
				<path fill="#A5A5A4" d="M12.203,171.566c-4.852,0-9.017-3.691-9.504-8.617c-0.25-2.539,0.503-5.024,2.122-6.999
					c1.618-1.974,3.909-3.197,6.448-3.448c2.541-0.252,5.026,0.502,6.999,2.121c1.974,1.619,3.198,3.909,3.449,6.449
					c0.137,1.373-0.027,2.74-0.486,4.063c-0.121,0.348-0.501,0.531-0.849,0.41c-0.348-0.12-0.531-0.501-0.411-0.848
					c0.396-1.139,0.536-2.313,0.419-3.494c-0.216-2.186-1.27-4.156-2.968-5.551c-1.697-1.392-3.836-2.038-6.021-1.823
					s-4.156,1.269-5.55,2.967c-1.393,1.698-2.041,3.837-1.825,6.022c0.445,4.512,4.48,7.816,8.99,7.373
					c1.955-0.192,3.781-1.086,5.142-2.518c0.254-0.267,0.677-0.277,0.943-0.023s0.277,0.677,0.023,0.942
					c-1.581,1.661-3.704,2.701-5.978,2.927C12.831,171.551,12.515,171.566,12.203,171.566z"/>
			</g>
		</g>
	</g>
	<g display="inline">
		<g>
			<path fill="#0C5394" d="M58.15,116.527h1.982c0.313,0,0.567-0.254,0.567-0.567v-7.806c0-0.313-0.255-0.566-0.567-0.566H58.15
				c-0.313,0-0.566,0.253-0.566,0.566v7.806C57.584,116.273,57.837,116.527,58.15,116.527z"/>
			<path fill="#0C5394" d="M66.623,116.527h1.984c0.313,0,0.565-0.254,0.565-0.567v-8.769c0-0.313-0.254-0.567-0.565-0.567h-1.984
				c-0.313,0-0.566,0.254-0.566,0.567v8.769C66.057,116.273,66.311,116.527,66.623,116.527z"/>
			<path fill="#0C5394" d="M71.504,119.344H54.855v-14.438c0-0.307-0.248-0.557-0.556-0.557c-0.307,0-0.556,0.25-0.556,0.557V119.9
				c0,0.307,0.249,0.556,0.556,0.556h17.203c0.308,0,0.556-0.249,0.556-0.556C72.059,119.593,71.811,119.344,71.504,119.344z"/>
			<path fill="#0C5394" d="M62.387,116.527h1.984c0.313,0,0.566-0.254,0.566-0.567v-11.179c0-0.313-0.254-0.566-0.566-0.566h-1.984
				c-0.313,0-0.566,0.253-0.566,0.566v11.179C61.818,116.273,62.074,116.527,62.387,116.527z M62.499,105.354
				c0-0.203,0.164-0.367,0.366-0.367h0.836c0.123,0,0.222,0.1,0.222,0.222c0,0.124-0.099,0.224-0.222,0.224h-0.758v5.582
				c0,0.122-0.101,0.221-0.223,0.221c-0.123,0-0.223-0.099-0.223-0.221L62.499,105.354L62.499,105.354z"/>
		</g>
	</g>
	<g display="inline">
		<g>
			<path fill="#A5A5A4" d="M8.149,116.527h1.983c0.313,0,0.567-0.254,0.567-0.567v-7.806c0-0.313-0.254-0.566-0.567-0.566H8.149
				c-0.313,0-0.566,0.253-0.566,0.566v7.806C7.583,116.273,7.836,116.527,8.149,116.527z"/>
			<path fill="#A5A5A4" d="M16.623,116.527h1.983c0.313,0,0.566-0.254,0.566-0.567v-8.769c0-0.313-0.253-0.567-0.566-0.567h-1.983
				c-0.313,0-0.567,0.254-0.567,0.567v8.769C16.056,116.273,16.31,116.527,16.623,116.527z"/>
			<path fill="#A5A5A4" d="M21.503,119.344H4.855v-14.438c0-0.307-0.248-0.557-0.556-0.557c-0.307,0-0.556,0.25-0.556,0.557V119.9
				c0,0.307,0.249,0.556,0.556,0.556h17.203c0.307,0,0.556-0.249,0.556-0.556C22.058,119.593,21.81,119.344,21.503,119.344z"/>
			<path fill="#A5A5A4" d="M12.386,116.527h1.984c0.313,0,0.567-0.254,0.567-0.567v-11.179c0-0.313-0.254-0.566-0.567-0.566h-1.984
				c-0.313,0-0.566,0.253-0.566,0.566v11.179C11.819,116.273,12.073,116.527,12.386,116.527z M12.499,105.354
				c0-0.203,0.164-0.367,0.366-0.367H13.7c0.123,0,0.222,0.1,0.222,0.222c0,0.124-0.099,0.224-0.222,0.224h-0.757v5.582
				c0,0.121-0.1,0.221-0.223,0.221c-0.123,0-0.222-0.1-0.222-0.221L12.499,105.354L12.499,105.354z"/>
		</g>
	</g>
	<g display="inline">
		<g>
			<path fill="#A5A5A4" d="M62.785,72.538h-1.564c-0.953,0-1.729-0.775-1.729-1.729v-0.503c-0.498-0.154-0.98-0.354-1.441-0.599
				l-0.355,0.357c-0.676,0.674-1.771,0.674-2.445,0.001l-1.105-1.108c-0.326-0.326-0.506-0.76-0.506-1.222
				c0-0.462,0.18-0.896,0.506-1.224l0.355-0.355c-0.244-0.46-0.443-0.942-0.6-1.441h-0.502c-0.953,0-1.729-0.775-1.729-1.729v-1.564
				c0-0.463,0.182-0.896,0.508-1.223c0.326-0.327,0.76-0.506,1.219-0.506c0.002,0,0.004,0,0.004,0h0.5
				c0.154-0.498,0.354-0.98,0.599-1.441l-0.356-0.356c-0.672-0.673-0.672-1.771,0-2.445l1.105-1.105
				c0.654-0.653,1.794-0.653,2.445,0l0.355,0.355c0.463-0.243,0.944-0.443,1.442-0.598V53.6c0-0.954,0.774-1.729,1.729-1.729h1.563
				c0.952,0,1.728,0.774,1.728,1.729v0.503c0.5,0.154,0.981,0.354,1.443,0.598l0.354-0.355c0.676-0.675,1.771-0.675,2.446,0
				l1.106,1.105c0.326,0.327,0.507,0.761,0.507,1.224c0,0.462-0.181,0.896-0.507,1.222l-0.356,0.356
				c0.243,0.461,0.443,0.943,0.599,1.441h0.502c0.953,0,1.729,0.775,1.729,1.729v1.564c0,0.953-0.775,1.729-1.729,1.729h-0.502
				c-0.102,0.333-0.213,0.637-0.34,0.922l-0.06,0.135c-0.125,0.28-0.453,0.405-0.733,0.281c-0.281-0.124-0.406-0.453-0.281-0.733
				l0.061-0.135c0.15-0.342,0.279-0.723,0.393-1.163c0.063-0.245,0.285-0.417,0.539-0.417h0.924c0.342,0,0.617-0.278,0.617-0.618
				v-1.564c0-0.34-0.275-0.617-0.617-0.617h-0.922c-0.254,0-0.477-0.173-0.539-0.418c-0.174-0.685-0.445-1.339-0.808-1.945
				c-0.131-0.219-0.096-0.498,0.085-0.678l0.653-0.653c0.116-0.117,0.182-0.271,0.182-0.437s-0.065-0.32-0.182-0.438l-1.106-1.106
				c-0.232-0.233-0.64-0.233-0.873,0l-0.654,0.654c-0.18,0.181-0.459,0.215-0.678,0.084c-0.604-0.361-1.26-0.633-1.943-0.808
				c-0.247-0.063-0.42-0.284-0.42-0.538v-0.923c0-0.341-0.276-0.618-0.616-0.618h-1.563c-0.342,0-0.617,0.277-0.617,0.618v0.923
				c0,0.254-0.174,0.476-0.42,0.538c-0.685,0.175-1.338,0.446-1.945,0.808c-0.219,0.131-0.496,0.096-0.676-0.084l-0.654-0.654
				c-0.233-0.233-0.641-0.233-0.873,0l-1.105,1.105c-0.24,0.241-0.242,0.635,0,0.875l0.652,0.653c0.18,0.18,0.216,0.459,0.085,0.678
				c-0.362,0.606-0.634,1.261-0.808,1.944c-0.063,0.246-0.285,0.419-0.539,0.419h-0.922c-0.155,0.001-0.32,0.063-0.438,0.18
				c-0.117,0.117-0.182,0.272-0.182,0.438v1.564c0,0.34,0.277,0.618,0.617,0.618h0.924c0.253,0,0.476,0.172,0.537,0.418
				c0.176,0.686,0.447,1.34,0.809,1.943c0.131,0.219,0.096,0.499-0.085,0.679l-0.653,0.653c-0.115,0.117-0.181,0.271-0.181,0.438
				c0,0.165,0.063,0.32,0.181,0.437l1.106,1.106c0.239,0.241,0.633,0.241,0.873,0l0.653-0.654c0.181-0.18,0.459-0.214,0.678-0.084
				c0.607,0.362,1.262,0.633,1.943,0.807c0.248,0.063,0.42,0.284,0.42,0.539v0.923c0,0.341,0.276,0.617,0.617,0.617h1.564
				c0.34,0,0.617-0.276,0.617-0.617v-0.924c0-0.255,0.172-0.476,0.416-0.538c0.354-0.091,0.697-0.205,1.022-0.341
				c0.283-0.117,0.608,0.018,0.726,0.302c0.119,0.282-0.017,0.608-0.299,0.726c-0.244,0.101-0.498,0.191-0.756,0.271v0.504
				C64.514,71.763,63.738,72.538,62.785,72.538z"/>
			<path fill="#A5A5A4" d="M70.41,69.271l-3.803-3.801c1.568-2.208,1.369-5.286-0.609-7.266c-1.573-1.573-3.844-2.019-5.816-1.349
				l2.244,2.244c0.633,0.631,0.633,1.654,0,2.285l-1.244,1.244c-0.631,0.63-1.654,0.63-2.283,0l-2.246-2.245
				c-0.668,1.975-0.223,4.243,1.352,5.816c1.79,1.791,4.482,2.129,6.615,1.014l3.926,3.927c0.071,0.072,0.198,0.074,0.271-0.001
				l1.595-1.594c0.038-0.037,0.057-0.083,0.057-0.138C70.467,69.356,70.448,69.31,70.41,69.271z M65.184,65.386
				c-0.043,0.043-0.102,0.064-0.156,0.064c-0.059,0-0.114-0.021-0.157-0.064c-0.087-0.087-0.087-0.228,0-0.314
				c0.752-0.753,1.166-1.753,1.166-2.816s-0.414-2.063-1.166-2.814c-0.087-0.087-0.087-0.228,0-0.314s0.228-0.087,0.313,0
				c0.836,0.835,1.297,1.947,1.297,3.129C66.48,63.438,66.02,64.55,65.184,65.386z M68.693,69.423c-0.188,0.185-0.487,0.186-0.674,0
				c-0.188-0.187-0.188-0.489-0.002-0.676c0.188-0.186,0.488-0.186,0.676,0C68.879,68.935,68.879,69.236,68.693,69.423z"/>
		</g>
		<g>
			<g>
				<path fill="#0C5394" d="M62.785,72.538h-1.563c-0.953,0-1.729-0.775-1.729-1.729v-0.503c-0.497-0.154-0.979-0.354-1.441-0.598
					l-0.356,0.356c-0.674,0.674-1.771,0.674-2.444,0l-1.104-1.107c-0.326-0.326-0.508-0.76-0.508-1.223
					c0-0.461,0.182-0.896,0.508-1.222l0.354-0.356c-0.243-0.46-0.442-0.942-0.599-1.441H53.4c-0.952,0-1.729-0.775-1.729-1.729
					v-1.564c0-0.462,0.181-0.897,0.507-1.224c0.327-0.325,0.76-0.505,1.221-0.505H53.4h0.502c0.154-0.498,0.354-0.98,0.6-1.441
					l-0.355-0.355c-0.674-0.675-0.674-1.771,0-2.446l1.104-1.106c0.653-0.652,1.794-0.652,2.444,0.001l0.356,0.356
					c0.462-0.244,0.943-0.444,1.441-0.6V53.6c0-0.953,0.776-1.729,1.729-1.729h1.563c0.953,0,1.729,0.775,1.729,1.729v0.502
					c0.5,0.155,0.981,0.355,1.442,0.6l0.354-0.356c0.676-0.674,1.771-0.674,2.445,0l1.105,1.105
					c0.328,0.327,0.508,0.761,0.508,1.223c0,0.462-0.18,0.897-0.508,1.224l-0.355,0.355c0.244,0.461,0.444,0.943,0.6,1.441h0.502
					c0.953,0,1.729,0.775,1.729,1.729v1.563c0,0.954-0.775,1.729-1.729,1.729h-0.504c-0.101,0.332-0.211,0.637-0.338,0.922
					l-0.061,0.135c-0.125,0.28-0.453,0.406-0.732,0.281c-0.281-0.124-0.406-0.452-0.281-0.732l0.061-0.135
					c0.15-0.342,0.28-0.724,0.393-1.164c0.063-0.246,0.285-0.417,0.539-0.417h0.924c0.342,0,0.617-0.277,0.617-0.619v-1.563
					c0-0.341-0.275-0.617-0.617-0.617h-0.922c-0.254,0-0.478-0.172-0.539-0.419c-0.174-0.684-0.445-1.338-0.808-1.944
					c-0.131-0.219-0.096-0.497,0.084-0.677l0.653-0.654c0.117-0.117,0.182-0.272,0.182-0.438c0-0.164-0.064-0.319-0.182-0.437
					l-1.105-1.105c-0.232-0.233-0.641-0.233-0.873,0l-0.654,0.653c-0.18,0.18-0.459,0.215-0.678,0.084
					c-0.605-0.36-1.261-0.633-1.945-0.808c-0.245-0.063-0.418-0.284-0.418-0.538V53.6c0-0.341-0.276-0.618-0.617-0.618h-1.563
					c-0.343,0-0.619,0.277-0.619,0.618v0.923c0,0.254-0.172,0.476-0.418,0.538c-0.685,0.174-1.338,0.446-1.945,0.808
					c-0.219,0.131-0.497,0.096-0.678-0.084l-0.652-0.653c-0.233-0.234-0.641-0.233-0.874,0l-1.106,1.104
					c-0.24,0.241-0.24,0.635,0.002,0.875l0.651,0.653c0.181,0.181,0.216,0.459,0.086,0.678c-0.362,0.606-0.634,1.261-0.808,1.944
					c-0.063,0.247-0.285,0.419-0.539,0.419h-0.924c-0.153,0.001-0.318,0.063-0.436,0.18c-0.117,0.117-0.182,0.272-0.182,0.438v1.563
					c0,0.342,0.277,0.619,0.617,0.619h0.922c0.255,0,0.477,0.172,0.539,0.418c0.176,0.686,0.447,1.34,0.809,1.944
					c0.13,0.219,0.096,0.497-0.086,0.678l-0.652,0.653c-0.117,0.116-0.182,0.272-0.182,0.437s0.064,0.321,0.182,0.438l1.105,1.107
					c0.24,0.239,0.633,0.24,0.874-0.001l0.653-0.653c0.181-0.181,0.459-0.216,0.678-0.085c0.607,0.362,1.262,0.633,1.943,0.807
					c0.246,0.063,0.42,0.284,0.42,0.539v0.923c0,0.34,0.275,0.617,0.617,0.617h1.563c0.341,0,0.616-0.277,0.616-0.617v-0.924
					c0-0.254,0.173-0.476,0.418-0.538c0.354-0.091,0.697-0.206,1.021-0.341c0.284-0.117,0.609,0.018,0.727,0.301
					c0.117,0.284-0.018,0.609-0.299,0.727c-0.246,0.101-0.498,0.191-0.756,0.271v0.504C64.514,71.763,63.738,72.538,62.785,72.538z"
					/>
			</g>
			<path fill="#0C5394" d="M70.41,69.271l-3.803-3.802c1.568-2.207,1.369-5.285-0.609-7.265c-1.572-1.573-3.842-2.019-5.816-1.35
				l2.245,2.245c0.632,0.63,0.632,1.654,0,2.285l-1.243,1.243c-0.632,0.631-1.654,0.631-2.285,0l-2.246-2.244
				c-0.668,1.975-0.223,4.243,1.352,5.815c1.79,1.791,4.482,2.129,6.615,1.015l3.926,3.927c0.072,0.072,0.198,0.073,0.271-0.001
				l1.595-1.594c0.039-0.037,0.058-0.084,0.057-0.139C70.468,69.356,70.449,69.31,70.41,69.271z M65.184,65.386
				c-0.043,0.043-0.102,0.064-0.156,0.064c-0.059,0-0.114-0.021-0.157-0.064c-0.087-0.088-0.087-0.229,0-0.314
				c0.752-0.752,1.166-1.752,1.166-2.815c0-1.064-0.414-2.064-1.166-2.816c-0.087-0.086-0.087-0.227,0-0.313s0.228-0.087,0.313,0
				c0.836,0.836,1.297,1.946,1.297,3.13C66.48,63.438,66.02,64.549,65.184,65.386z M68.693,69.423c-0.187,0.185-0.487,0.186-0.674,0
				c-0.188-0.188-0.188-0.49,0-0.676c0.187-0.186,0.487-0.186,0.674,0C68.879,68.934,68.879,69.235,68.693,69.423z"/>
		</g>
	</g>
	<g display="inline">
		<g>
			<g>
				<path fill="#0C5394" d="M12.785,72.538h-1.563c-0.953,0-1.729-0.775-1.729-1.729v-0.503c-0.497-0.154-0.98-0.354-1.441-0.598
					l-0.356,0.356c-0.674,0.674-1.771,0.674-2.445,0l-1.105-1.107c-0.326-0.326-0.507-0.76-0.507-1.223
					c0-0.461,0.181-0.896,0.508-1.222l0.354-0.356c-0.243-0.46-0.443-0.942-0.598-1.441H3.398c-0.952,0-1.728-0.775-1.729-1.729
					v-1.564c0-0.462,0.18-0.897,0.507-1.224c0.327-0.325,0.76-0.505,1.22-0.505c0.001,0,0.002,0,0.003,0h0.502
					c0.154-0.498,0.354-0.98,0.599-1.441l-0.356-0.355c-0.673-0.675-0.674-1.771,0-2.446l1.105-1.106
					c0.653-0.652,1.794-0.652,2.445,0.001l0.356,0.356c0.461-0.244,0.943-0.444,1.441-0.6V53.6c0-0.953,0.776-1.729,1.729-1.729
					h1.563c0.953,0,1.729,0.775,1.729,1.729v0.502c0.499,0.155,0.981,0.355,1.442,0.6l0.355-0.356c0.675-0.674,1.771-0.674,2.445,0
					l1.106,1.105c0.327,0.327,0.507,0.761,0.507,1.223c0,0.462-0.18,0.897-0.507,1.224l-0.356,0.355
					c0.244,0.461,0.444,0.943,0.599,1.441h0.502c0.953,0,1.729,0.775,1.729,1.729v1.563c0,0.954-0.776,1.729-1.729,1.729h-0.503
					c-0.101,0.332-0.211,0.637-0.338,0.922l-0.061,0.135c-0.125,0.28-0.453,0.406-0.733,0.281c-0.28-0.124-0.406-0.452-0.281-0.732
					l0.061-0.135c0.15-0.342,0.28-0.724,0.393-1.164c0.063-0.246,0.285-0.417,0.538-0.417h0.925c0.341,0,0.617-0.277,0.617-0.619
					v-1.563c0-0.341-0.276-0.617-0.618-0.617h-0.922c-0.254,0-0.477-0.172-0.538-0.419c-0.175-0.684-0.446-1.338-0.808-1.944
					c-0.131-0.219-0.096-0.497,0.084-0.677l0.653-0.654c0.117-0.117,0.182-0.272,0.182-0.438c0-0.164-0.064-0.319-0.182-0.437
					l-1.105-1.105c-0.233-0.233-0.641-0.233-0.874,0l-0.654,0.653c-0.18,0.18-0.458,0.215-0.677,0.084
					c-0.606-0.36-1.261-0.633-1.945-0.808c-0.246-0.063-0.419-0.284-0.419-0.538V53.6c0-0.341-0.276-0.618-0.617-0.618H11.22
					c-0.342,0-0.618,0.277-0.618,0.618v0.923c0,0.254-0.173,0.476-0.419,0.538c-0.684,0.174-1.338,0.446-1.945,0.808
					C8.021,56,7.742,55.965,7.563,55.785L6.91,55.132c-0.233-0.234-0.641-0.233-0.874,0L4.93,56.236
					c-0.24,0.241-0.24,0.635,0.001,0.875l0.652,0.653c0.181,0.181,0.216,0.459,0.086,0.678c-0.363,0.606-0.634,1.261-0.808,1.944
					c-0.063,0.247-0.285,0.419-0.539,0.419H3.398c-0.154,0.001-0.319,0.063-0.436,0.18c-0.117,0.117-0.182,0.272-0.182,0.438v1.563
					c0,0.342,0.277,0.619,0.617,0.619H4.32c0.254,0,0.476,0.172,0.539,0.418c0.175,0.686,0.446,1.34,0.808,1.944
					c0.13,0.219,0.095,0.497-0.086,0.678L4.93,67.299c-0.117,0.116-0.182,0.272-0.182,0.437s0.064,0.321,0.182,0.438l1.105,1.107
					c0.241,0.239,0.633,0.24,0.874-0.001l0.654-0.653c0.18-0.181,0.458-0.216,0.677-0.085c0.607,0.362,1.262,0.633,1.944,0.807
					c0.246,0.063,0.419,0.284,0.419,0.539v0.923c0,0.34,0.276,0.617,0.618,0.617h1.563c0.341,0,0.617-0.277,0.617-0.617v-0.924
					c0-0.254,0.172-0.476,0.418-0.538c0.353-0.091,0.696-0.206,1.021-0.341c0.284-0.117,0.609,0.018,0.727,0.301
					c0.117,0.284-0.018,0.609-0.3,0.727c-0.245,0.101-0.497,0.191-0.755,0.271v0.504C14.514,71.763,13.738,72.538,12.785,72.538z"/>
			</g>
			<path fill="#0C5394" d="M20.41,69.271l-3.803-3.802c1.569-2.207,1.37-5.285-0.609-7.265c-1.572-1.573-3.842-2.019-5.816-1.35
				l2.245,2.245c0.631,0.63,0.632,1.654,0,2.285l-1.244,1.243c-0.631,0.631-1.654,0.631-2.285,0l-2.245-2.244
				c-0.669,1.975-0.224,4.243,1.351,5.815c1.79,1.791,4.483,2.129,6.615,1.015l3.926,3.927c0.072,0.072,0.198,0.073,0.272-0.001
				l1.594-1.594c0.039-0.037,0.058-0.084,0.057-0.139C20.468,69.356,20.449,69.31,20.41,69.271z M15.184,65.386
				c-0.044,0.043-0.102,0.064-0.157,0.064c-0.058,0-0.114-0.021-0.157-0.064c-0.087-0.088-0.087-0.229,0-0.314
				c0.752-0.752,1.166-1.752,1.166-2.815c0-1.064-0.414-2.064-1.166-2.816c-0.087-0.086-0.087-0.227,0-0.313s0.228-0.087,0.314,0
				c0.836,0.836,1.297,1.946,1.297,3.13C16.48,63.438,16.02,64.549,15.184,65.386z M18.693,69.423c-0.186,0.185-0.487,0.186-0.674,0
				c-0.187-0.188-0.187-0.49,0-0.676s0.488-0.186,0.674,0C18.879,68.934,18.879,69.235,18.693,69.423z"/>
		</g>
		<g>
			<path fill="#A5A5A4" d="M12.785,72.538h-1.564c-0.953,0-1.729-0.775-1.729-1.729v-0.503c-0.498-0.154-0.98-0.354-1.441-0.599
				l-0.356,0.357c-0.674,0.674-1.771,0.674-2.444,0.001l-1.107-1.108c-0.326-0.326-0.506-0.76-0.506-1.222
				c0-0.462,0.18-0.896,0.507-1.224L4.5,66.156c-0.243-0.46-0.443-0.942-0.599-1.441H3.398c-0.953,0-1.729-0.775-1.729-1.729v-1.564
				c0-0.463,0.18-0.896,0.507-1.223c0.326-0.327,0.76-0.506,1.22-0.506c0.001,0,0.002,0,0.003,0H3.9
				c0.154-0.498,0.355-0.98,0.6-1.441l-0.357-0.356c-0.673-0.673-0.673-1.771,0-2.445l1.106-1.105c0.653-0.653,1.793-0.653,2.445,0
				l0.355,0.355c0.462-0.243,0.944-0.443,1.442-0.598V53.6c0-0.954,0.775-1.729,1.729-1.729h1.564c0.953,0,1.728,0.774,1.728,1.729
				v0.503c0.499,0.154,0.981,0.354,1.443,0.598l0.354-0.355c0.675-0.675,1.771-0.675,2.446,0l1.106,1.105
				c0.326,0.327,0.507,0.761,0.507,1.224c0,0.462-0.181,0.896-0.507,1.222l-0.356,0.356c0.243,0.461,0.443,0.943,0.599,1.441h0.501
				c0.953,0,1.729,0.775,1.729,1.729v1.564c0,0.953-0.775,1.729-1.729,1.729h-0.502c-0.101,0.333-0.212,0.637-0.339,0.922
				l-0.06,0.135c-0.125,0.28-0.453,0.405-0.734,0.281c-0.28-0.124-0.406-0.453-0.281-0.733l0.061-0.135
				c0.15-0.342,0.28-0.723,0.393-1.163c0.063-0.245,0.285-0.417,0.539-0.417h0.924c0.341,0,0.617-0.278,0.617-0.618v-1.564
				c0-0.34-0.276-0.617-0.618-0.617h-0.922c-0.254,0-0.476-0.173-0.538-0.418c-0.174-0.685-0.446-1.339-0.808-1.945
				c-0.131-0.219-0.096-0.498,0.085-0.678l0.653-0.653c0.116-0.117,0.182-0.271,0.182-0.437s-0.065-0.32-0.182-0.438l-1.106-1.106
				c-0.233-0.233-0.64-0.233-0.873,0l-0.654,0.654c-0.18,0.181-0.459,0.215-0.678,0.084c-0.605-0.361-1.26-0.633-1.944-0.808
				c-0.247-0.063-0.419-0.284-0.419-0.538v-0.923c0-0.341-0.277-0.618-0.617-0.618H11.22c-0.341,0-0.617,0.277-0.617,0.618v0.923
				c0,0.254-0.173,0.476-0.419,0.538c-0.685,0.175-1.339,0.446-1.945,0.808C8.021,56,7.742,55.965,7.563,55.785l-0.654-0.654
				c-0.233-0.233-0.641-0.233-0.873,0L4.93,56.236c-0.24,0.241-0.241,0.635,0,0.875l0.654,0.653c0.18,0.18,0.215,0.459,0.084,0.678
				c-0.362,0.606-0.634,1.261-0.808,1.944c-0.063,0.246-0.284,0.419-0.538,0.419H3.398c-0.155,0.001-0.32,0.063-0.437,0.18
				c-0.117,0.117-0.181,0.272-0.181,0.438v1.564c0,0.34,0.277,0.618,0.617,0.618H4.32c0.254,0,0.476,0.172,0.538,0.418
				c0.175,0.686,0.446,1.34,0.808,1.943c0.131,0.219,0.096,0.499-0.084,0.679L4.93,67.299c-0.117,0.117-0.182,0.271-0.182,0.438
				c0,0.165,0.064,0.32,0.182,0.437l1.105,1.106c0.24,0.241,0.633,0.241,0.873,0l0.654-0.654c0.18-0.18,0.459-0.214,0.678-0.084
				c0.606,0.362,1.261,0.633,1.944,0.807c0.246,0.063,0.419,0.284,0.419,0.539v0.923c0,0.341,0.276,0.617,0.617,0.617h1.564
				c0.34,0,0.617-0.276,0.617-0.617v-0.924c0-0.255,0.172-0.476,0.417-0.538c0.353-0.091,0.697-0.205,1.022-0.341
				c0.283-0.117,0.608,0.018,0.726,0.302c0.118,0.282-0.017,0.608-0.3,0.726c-0.244,0.101-0.497,0.191-0.755,0.271v0.504
				C14.513,71.763,13.738,72.538,12.785,72.538z"/>
			<path fill="#A5A5A4" d="M20.41,69.271l-3.803-3.801c1.569-2.208,1.37-5.286-0.609-7.266c-1.573-1.573-3.842-2.019-5.816-1.349
				l2.245,2.244c0.631,0.631,0.631,1.654,0,2.285l-1.245,1.244c-0.63,0.63-1.653,0.63-2.284,0l-2.244-2.245
				c-0.67,1.975-0.225,4.243,1.35,5.816c1.79,1.791,4.483,2.129,6.615,1.014l3.926,3.927c0.071,0.072,0.198,0.074,0.272-0.001
				l1.594-1.594c0.038-0.037,0.057-0.083,0.057-0.138C20.467,69.356,20.448,69.31,20.41,69.271z M15.184,65.386
				c-0.044,0.043-0.102,0.064-0.157,0.064c-0.058,0-0.114-0.021-0.157-0.064c-0.087-0.087-0.087-0.228,0-0.314
				c0.752-0.753,1.166-1.753,1.166-2.816s-0.414-2.063-1.166-2.814c-0.087-0.087-0.087-0.228,0-0.314s0.228-0.087,0.314,0
				c0.836,0.835,1.297,1.947,1.297,3.129C16.48,63.438,16.02,64.55,15.184,65.386z M18.693,69.423c-0.187,0.185-0.487,0.186-0.674,0
				c-0.188-0.187-0.188-0.489-0.001-0.676c0.187-0.186,0.488-0.186,0.675,0C18.879,68.935,18.879,69.236,18.693,69.423z"/>
		</g>
	</g>
	<g display="inline">
		<path fill="#0C5394" d="M71.068,1.722H59.014c-1.017,0-1.842,0.826-1.842,1.842v7.641c0,1.015,0.825,1.842,1.842,1.842h1.813
			l0.001,3.314c0,0.003,0.001,0.006,0.001,0.01l-0.002,0.039c0,0.332,0.271,0.602,0.601,0.602c0.165,0,0.323-0.07,0.438-0.195
			l0.026-0.028c0.282-0.311,1.174-1.569,2.65-3.741h6.525c1.015,0,1.842-0.827,1.842-1.842V3.563
			C72.91,2.548,72.083,1.722,71.068,1.722z M60.996,7.986c-0.553,0-0.999-0.447-0.999-0.998c0-0.55,0.446-0.996,0.999-0.996
			c0.549,0,0.997,0.446,0.997,0.996C61.993,7.539,61.545,7.986,60.996,7.986z M65.04,7.986c-0.552,0-0.997-0.447-0.997-0.998
			c0-0.55,0.445-0.996,0.997-0.996c0.551,0,0.998,0.446,0.998,0.996C66.038,7.539,65.591,7.986,65.04,7.986z M69.086,7.986
			c-0.551,0-0.997-0.447-0.997-0.998c0-0.55,0.446-0.996,0.997-0.996s0.997,0.446,0.997,0.996
			C70.083,7.539,69.637,7.986,69.086,7.986z"/>
		<g>
			<path fill="#0C5394" d="M66.809,14.379h-1.562c-1.703,2.495-2.16,3.078-2.368,3.307l-0.039,0.041
				c-0.359,0.391-0.876,0.617-1.412,0.617c-1.066,0-1.934-0.867-1.934-1.935v-2.03h-0.48c-1.752,0-3.175-1.425-3.175-3.175V8.259
				V7.37V7.369h-2.446V7.37h-0.131c-1.139,0-2.063,0.926-2.063,2.063v7.641c0,1.138,0.925,2.063,2.063,2.063l6.407-0.001
				c0.501,0.737,0.94,1.517,1.296,2.144c0.303,0.537,0.542,0.962,0.75,1.247c0.209,0.286,0.545,0.457,0.898,0.457
				c0.119,0,0.236-0.019,0.344-0.055c0.459-0.148,0.768-0.573,0.768-1.057v-2.735h1.592c1.14,0,2.063-0.926,2.063-2.063v-2.695
				H66.809L66.809,14.379z"/>
		</g>
	</g>
	<g display="inline">
		<g>
			<path fill="#A5A5A4" d="M21.068,1.722H9.013c-1.015,0-1.841,0.826-1.841,1.842v7.641c0,1.015,0.826,1.842,1.841,1.842h1.814
				l0.001,3.314c0,0.003,0.001,0.006,0.001,0.01l-0.002,0.039c0,0.332,0.27,0.602,0.602,0.602c0.165,0,0.322-0.07,0.438-0.195
				l0.026-0.028c0.282-0.311,1.174-1.569,2.65-3.741h6.525c1.015,0,1.842-0.827,1.842-1.842V3.563
				C22.91,2.548,22.083,1.722,21.068,1.722z M10.996,7.986c-0.551,0-0.998-0.447-0.998-0.998c0-0.55,0.447-0.996,0.998-0.996
				c0.55,0,0.997,0.446,0.997,0.996C11.993,7.539,11.546,7.986,10.996,7.986z M15.04,7.986c-0.551,0-0.997-0.447-0.997-0.998
				c0-0.55,0.446-0.996,0.997-0.996s0.998,0.446,0.998,0.996C16.038,7.539,15.591,7.986,15.04,7.986z M19.086,7.986
				c-0.551,0-0.997-0.447-0.997-0.998c0-0.55,0.446-0.996,0.997-0.996c0.551,0,0.997,0.446,0.997,0.996
				C20.083,7.539,19.637,7.986,19.086,7.986z"/>
		</g>
		<g>
			<g>
				<g>
					<g>
						<g>
							<g>
								<g>
									<path fill="#A5A5A4" d="M12.613,22.984c-0.354,0-0.69-0.171-0.898-0.457c-0.208-0.286-0.448-0.711-0.751-1.249
										c-0.354-0.626-0.794-1.406-1.294-2.142l-6.408,0.001c-1.138,0-2.063-0.926-2.063-2.063v-7.64
										c0-1.138,0.926-2.063,2.063-2.063h2.133c0.246,0,0.444,0.199,0.444,0.444S5.64,8.259,5.395,8.259H3.262
										c-0.648,0-1.175,0.527-1.175,1.175v7.641c0,0.648,0.527,1.175,1.175,1.175h6.409c0.295,0,0.569,0.145,0.734,0.388
										c0.521,0.767,0.97,1.564,1.332,2.205c0.278,0.493,0.519,0.918,0.696,1.162c0.055,0.075,0.172,0.106,0.242,0.083
										c0.1-0.032,0.16-0.115,0.16-0.213V19.14c0-0.49,0.398-0.889,0.889-0.889h1.592c0.648,0,1.175-0.527,1.175-1.175v-2.25
										c0-0.246,0.199-0.444,0.444-0.444c0.246,0,0.445,0.199,0.445,0.444v2.25c0,1.138-0.926,2.063-2.064,2.063h-1.592v2.735
										c0,0.484-0.309,0.909-0.769,1.057C12.853,22.965,12.735,22.984,12.613,22.984z"/>
								</g>
							</g>
						</g>
					</g>
				</g>
			</g>
		</g>
	</g>
</g>
<g>
	<g>
		<circle fill="#0C5394" cx="56.468" cy="162.136" r="1.608"/>
		<circle fill="#0C5394" cx="61.975" cy="162.136" r="1.608"/>
		<circle fill="#0C5394" cx="67.48" cy="162.136" r="1.608"/>
		<g>
			<path fill="#0C5394" d="M61.994,173.001c-5.584,0-10.379-4.25-10.939-9.919c-0.289-2.925,0.578-5.786,2.442-8.057
				c1.862-2.272,4.5-3.684,7.424-3.971c2.925-0.291,5.784,0.577,8.058,2.441c2.271,1.863,3.681,4.5,3.969,7.424
				c0.158,1.581-0.03,3.154-0.559,4.676c-0.14,0.4-0.576,0.612-0.978,0.475c-0.399-0.141-0.612-0.577-0.474-0.979
				c0.453-1.308,0.615-2.661,0.48-4.021c-0.247-2.516-1.46-4.784-3.415-6.389c-1.955-1.604-4.417-2.349-6.933-2.102
				c-2.516,0.249-4.784,1.462-6.389,3.417c-1.604,1.954-2.351,4.416-2.102,6.933c0.514,5.192,5.156,8.998,10.35,8.488
				c2.252-0.223,4.354-1.253,5.92-2.898c0.291-0.309,0.776-0.317,1.084-0.026c0.308,0.292,0.318,0.776,0.026,1.085
				c-1.817,1.913-4.265,3.109-6.881,3.367C62.717,172.982,62.354,173.001,61.994,173.001z"/>
		</g>
	</g>
</g>
<g>
	<g>
		<circle fill="#A5A5A4" cx="6.468" cy="162.137" r="1.607"/>
		<circle fill="#A5A5A4" cx="11.974" cy="162.137" r="1.607"/>
		<circle fill="#A5A5A4" cx="17.479" cy="162.137" r="1.607"/>
		<g>
			<path fill="#A5A5A4" d="M11.994,173c-5.584,0-10.379-4.249-10.939-9.919c-0.288-2.923,0.579-5.784,2.442-8.058
				c1.863-2.271,4.5-3.681,7.423-3.969c2.925-0.291,5.786,0.577,8.056,2.441c2.272,1.863,3.682,4.499,3.971,7.423
				c0.157,1.582-0.032,3.155-0.56,4.677c-0.139,0.399-0.577,0.611-0.977,0.473c-0.4-0.139-0.612-0.576-0.474-0.977
				c0.456-1.31,0.617-2.662,0.482-4.021c-0.249-2.516-1.461-4.783-3.416-6.389c-1.954-1.602-4.416-2.348-6.932-2.1
				c-2.516,0.247-4.784,1.46-6.388,3.415c-1.603,1.954-2.35,4.416-2.101,6.933c0.513,5.193,5.158,8.998,10.349,8.487
				c2.25-0.222,4.353-1.251,5.918-2.897c0.292-0.307,0.779-0.318,1.086-0.026c0.307,0.293,0.319,0.778,0.027,1.085
				c-1.82,1.912-4.264,3.109-6.88,3.367C12.717,172.982,12.353,173,11.994,173z"/>
		</g>
	</g>
</g>
<g>
	<g>
		<path fill="#0C5394" d="M56.292,116.79h2.382c0.377,0,0.682-0.306,0.682-0.683v-9.375c0-0.377-0.305-0.682-0.682-0.682h-2.382
			c-0.377,0-0.681,0.305-0.681,0.682v9.375C55.611,116.484,55.915,116.79,56.292,116.79z"/>
		<path fill="#0C5394" d="M66.471,116.79h2.383c0.375,0,0.681-0.306,0.681-0.683v-10.532c0-0.376-0.306-0.683-0.681-0.683h-2.383
			c-0.377,0-0.682,0.307-0.682,0.683v10.532C65.789,116.484,66.094,116.79,66.471,116.79z"/>
		<path fill="#0C5394" d="M72.332,120.174H52.335v-17.345c0-0.368-0.299-0.667-0.668-0.667c-0.368,0-0.667,0.299-0.667,0.667v18.012
			c0,0.368,0.299,0.668,0.667,0.668h20.665c0.369,0,0.668-0.3,0.668-0.668S72.701,120.174,72.332,120.174z"/>
		<path fill="#0C5394" d="M61.381,116.79h2.385c0.375,0,0.68-0.306,0.68-0.683V102.68c0-0.377-0.305-0.681-0.68-0.681h-2.385
			c-0.376,0-0.682,0.304-0.682,0.681v13.428C60.699,116.484,61.005,116.79,61.381,116.79z M61.516,103.366
			c0-0.242,0.197-0.44,0.439-0.44h1.005c0.147,0,0.267,0.119,0.267,0.266c0,0.149-0.119,0.269-0.267,0.269h-0.911v6.706
			c0,0.146-0.119,0.266-0.266,0.266c-0.148,0-0.268-0.117-0.268-0.266V103.366L61.516,103.366z"/>
	</g>
</g>
<g>
	<g>
		<path fill="#A5A5A4" d="M6.292,116.79h2.382c0.376,0,0.682-0.306,0.682-0.683v-9.375c0-0.377-0.305-0.682-0.682-0.682H6.292
			c-0.377,0-0.681,0.305-0.681,0.682v9.375C5.611,116.484,5.915,116.79,6.292,116.79z"/>
		<path fill="#A5A5A4" d="M16.471,116.79h2.382c0.376,0,0.681-0.306,0.681-0.683v-10.532c0-0.376-0.304-0.683-0.681-0.683h-2.382
			c-0.376,0-0.682,0.307-0.682,0.683v10.532C15.789,116.484,16.094,116.79,16.471,116.79z"/>
		<path fill="#A5A5A4" d="M22.333,120.174H2.335v-17.345c0-0.368-0.298-0.667-0.667-0.667c-0.368,0-0.667,0.299-0.667,0.667v18.012
			c0,0.368,0.299,0.668,0.667,0.668h20.665c0.368,0,0.667-0.3,0.667-0.668S22.701,120.174,22.333,120.174z"/>
		<path fill="#A5A5A4" d="M11.38,116.79h2.384c0.377,0,0.682-0.306,0.682-0.683V102.68c0-0.377-0.305-0.681-0.682-0.681H11.38
			c-0.375,0-0.68,0.304-0.68,0.681v13.428C10.7,116.484,11.005,116.79,11.38,116.79z M11.517,103.366c0-0.242,0.197-0.44,0.44-0.44
			h1.003c0.148,0,0.267,0.119,0.267,0.266c0,0.149-0.119,0.269-0.267,0.269h-0.91v6.706c0,0.146-0.12,0.266-0.267,0.266
			c-0.148,0-0.267-0.119-0.267-0.266L11.517,103.366L11.517,103.366z"/>
	</g>
</g>
<g>
	<g>
		<path fill="#A5A5A4" d="M62.87,73.498h-1.74c-1.062,0-1.924-0.863-1.924-1.923v-0.56c-0.556-0.171-1.091-0.395-1.604-0.666
			l-0.396,0.397c-0.751,0.75-1.971,0.75-2.721,0.001l-1.232-1.233c-0.361-0.363-0.563-0.846-0.563-1.359
			c0-0.514,0.201-0.998,0.563-1.362l0.396-0.396c-0.271-0.512-0.492-1.049-0.666-1.604h-0.559c-1.061,0-1.924-0.863-1.925-1.923
			v-1.741c0-0.515,0.201-0.998,0.565-1.36c0.362-0.364,0.844-0.563,1.354-0.563c0.002,0,0.004,0,0.005,0h0.557
			c0.174-0.555,0.396-1.091,0.668-1.604l-0.397-0.397c-0.748-0.749-0.748-1.97,0-2.721l1.231-1.23c0.728-0.727,1.996-0.727,2.722,0
			L57.6,53.65c0.516-0.271,1.051-0.493,1.605-0.665v-0.56c0-1.062,0.863-1.924,1.924-1.924h1.74c1.061,0,1.923,0.862,1.923,1.924
			v0.56c0.556,0.172,1.092,0.395,1.606,0.665l0.395-0.396c0.751-0.751,1.973-0.751,2.723,0l1.231,1.23
			c0.36,0.364,0.563,0.847,0.563,1.362c0,0.514-0.201,0.996-0.563,1.359l-0.397,0.397c0.271,0.513,0.493,1.049,0.668,1.604h0.557
			c1.061,0,1.925,0.863,1.925,1.923v1.741c0,1.061-0.862,1.923-1.924,1.923h-0.558c-0.113,0.371-0.236,0.708-0.379,1.026
			l-0.065,0.15c-0.14,0.313-0.505,0.45-0.816,0.313c-0.313-0.138-0.452-0.504-0.313-0.816l0.067-0.149
			c0.167-0.38,0.313-0.805,0.438-1.294c0.069-0.273,0.317-0.464,0.6-0.464h1.028c0.38,0,0.688-0.31,0.688-0.688V61.13
			c0-0.378-0.308-0.687-0.688-0.687h-1.026c-0.281,0-0.527-0.192-0.599-0.465c-0.192-0.762-0.496-1.49-0.898-2.165
			c-0.146-0.243-0.106-0.554,0.095-0.754l0.729-0.727c0.129-0.131,0.201-0.302,0.201-0.486c0-0.184-0.072-0.356-0.201-0.487
			l-1.232-1.231c-0.259-0.26-0.711-0.26-0.971,0l-0.729,0.728c-0.2,0.201-0.512,0.239-0.754,0.094
			c-0.674-0.402-1.402-0.704-2.164-0.899c-0.275-0.07-0.467-0.316-0.467-0.599v-1.026c0-0.38-0.31-0.688-0.688-0.688h-1.74
			c-0.379,0-0.688,0.308-0.688,0.688v1.026c0,0.283-0.192,0.529-0.467,0.599c-0.762,0.195-1.49,0.497-2.164,0.899
			c-0.244,0.146-0.554,0.106-0.754-0.094l-0.729-0.728c-0.26-0.26-0.713-0.26-0.971,0l-1.232,1.23c-0.268,0.269-0.27,0.707,0,0.974
			l0.729,0.727c0.199,0.2,0.24,0.511,0.095,0.754c-0.403,0.675-0.706,1.403-0.898,2.164c-0.069,0.274-0.317,0.467-0.599,0.467
			h-1.027c-0.173,0.001-0.355,0.07-0.486,0.2c-0.129,0.13-0.201,0.303-0.201,0.487v1.741c0,0.378,0.31,0.688,0.688,0.688h1.027
			c0.281,0,0.527,0.191,0.599,0.465c0.194,0.763,0.496,1.491,0.898,2.163c0.146,0.244,0.106,0.555-0.095,0.755l-0.729,0.727
			c-0.129,0.13-0.201,0.302-0.201,0.487c0,0.184,0.072,0.356,0.201,0.486l1.232,1.231c0.267,0.269,0.703,0.269,0.971,0l0.729-0.728
			c0.2-0.2,0.512-0.238,0.754-0.093c0.676,0.403,1.403,0.705,2.164,0.897c0.273,0.07,0.467,0.316,0.467,0.6v1.027
			c0,0.379,0.309,0.687,0.688,0.687h1.74c0.378,0,0.688-0.307,0.688-0.687v-1.028c0-0.284,0.19-0.529,0.465-0.599
			c0.393-0.101,0.774-0.228,1.138-0.379c0.313-0.13,0.677,0.02,0.807,0.336c0.134,0.314-0.018,0.677-0.333,0.808
			c-0.271,0.112-0.553,0.213-0.84,0.302v0.561C64.793,72.635,63.932,73.498,62.87,73.498z"/>
		<path fill="#A5A5A4" d="M71.355,69.861l-4.231-4.229c1.746-2.458,1.524-5.883-0.679-8.085c-1.75-1.751-4.276-2.247-6.473-1.501
			l2.498,2.498c0.702,0.702,0.702,1.841,0,2.543l-1.386,1.385c-0.702,0.701-1.841,0.701-2.542,0l-2.498-2.499
			c-0.745,2.197-0.249,4.722,1.503,6.473c1.992,1.993,4.989,2.369,7.361,1.128l4.368,4.37c0.08,0.081,0.222,0.082,0.304-0.001
			l1.772-1.774c0.043-0.042,0.063-0.092,0.063-0.153C71.419,69.957,71.398,69.905,71.355,69.861z M65.539,65.539
			c-0.048,0.048-0.113,0.072-0.176,0.072s-0.127-0.024-0.174-0.072c-0.098-0.097-0.098-0.253,0-0.35
			c0.836-0.838,1.297-1.951,1.297-3.134c0-1.183-0.461-2.295-1.297-3.132c-0.098-0.097-0.098-0.253,0-0.35
			c0.098-0.097,0.254-0.097,0.35,0c0.932,0.929,1.443,2.167,1.443,3.482C66.982,63.371,66.471,64.608,65.539,65.539z M69.445,70.031
			c-0.207,0.206-0.543,0.206-0.75,0c-0.209-0.208-0.209-0.545-0.002-0.752c0.209-0.207,0.545-0.207,0.752,0
			C69.65,69.488,69.65,69.823,69.445,70.031z"/>
	</g>
	<g>
		<g>
			<path fill="#0C5394" d="M62.87,73.498h-1.739c-1.061,0-1.925-0.863-1.925-1.923v-0.56c-0.554-0.171-1.091-0.395-1.604-0.665
				l-0.396,0.396c-0.75,0.75-1.971,0.75-2.721,0l-1.23-1.232c-0.361-0.363-0.564-0.846-0.564-1.36c0-0.513,0.203-0.997,0.565-1.36
				l0.396-0.396c-0.271-0.512-0.493-1.049-0.666-1.604h-0.56c-1.06,0-1.923-0.863-1.924-1.923V61.13c0-0.514,0.2-0.999,0.563-1.362
				c0.365-0.362,0.846-0.562,1.356-0.562c0.001,0,0.003,0,0.004,0h0.56c0.172-0.555,0.395-1.091,0.666-1.604l-0.396-0.396
				c-0.749-0.75-0.75-1.971,0-2.722l1.23-1.231c0.727-0.726,1.996-0.726,2.721,0.001l0.396,0.396
				c0.514-0.271,1.049-0.494,1.604-0.667v-0.558c0-1.061,0.864-1.924,1.925-1.924h1.739c1.062,0,1.924,0.863,1.924,1.924v0.558
				c0.556,0.173,1.093,0.396,1.604,0.667l0.396-0.396c0.751-0.75,1.971-0.75,2.721,0l1.232,1.23c0.363,0.364,0.563,0.847,0.563,1.36
				c0,0.514-0.199,0.999-0.563,1.362l-0.396,0.396c0.271,0.513,0.494,1.049,0.666,1.604h0.559c1.061,0,1.925,0.863,1.925,1.923v1.74
				c0,1.062-0.864,1.924-1.923,1.924h-0.561c-0.111,0.369-0.234,0.708-0.377,1.026l-0.066,0.15
				c-0.141,0.313-0.504,0.452-0.815,0.313c-0.313-0.138-0.452-0.503-0.313-0.815l0.068-0.15c0.166-0.38,0.313-0.806,0.437-1.295
				c0.069-0.274,0.317-0.464,0.599-0.464h1.03c0.379,0,0.687-0.309,0.687-0.688v-1.74c0-0.379-0.308-0.687-0.688-0.687h-1.026
				c-0.282,0-0.528-0.191-0.599-0.467c-0.193-0.76-0.496-1.488-0.898-2.164c-0.146-0.243-0.105-0.553,0.094-0.753l0.729-0.728
				c0.13-0.131,0.201-0.303,0.201-0.487c0-0.183-0.071-0.354-0.201-0.486l-1.23-1.23c-0.26-0.26-0.713-0.26-0.973,0l-0.729,0.727
				c-0.2,0.2-0.51,0.239-0.754,0.094c-0.674-0.401-1.402-0.704-2.164-0.899c-0.273-0.07-0.467-0.316-0.467-0.599v-1.026
				c0-0.38-0.309-0.688-0.688-0.688h-1.739c-0.38,0-0.688,0.308-0.688,0.688v1.026c0,0.283-0.191,0.529-0.465,0.599
				c-0.762,0.193-1.489,0.497-2.166,0.899c-0.241,0.146-0.553,0.106-0.752-0.094l-0.729-0.727c-0.259-0.261-0.713-0.26-0.973,0
				l-1.231,1.229c-0.269,0.269-0.269,0.707,0.001,0.974l0.727,0.727c0.201,0.201,0.24,0.511,0.097,0.754
				c-0.404,0.675-0.705,1.403-0.897,2.164c-0.072,0.275-0.318,0.467-0.601,0.467H52.43c-0.173,0.001-0.355,0.07-0.484,0.2
				c-0.131,0.13-0.202,0.303-0.202,0.487v1.74c0,0.38,0.308,0.688,0.687,0.688h1.027c0.281,0,0.527,0.191,0.6,0.465
				c0.194,0.763,0.498,1.491,0.898,2.164c0.145,0.244,0.105,0.553-0.096,0.754l-0.728,0.727c-0.13,0.129-0.202,0.303-0.202,0.486
				c0,0.184,0.072,0.357,0.202,0.487l1.231,1.232c0.269,0.266,0.703,0.267,0.972-0.001l0.729-0.727
				c0.199-0.201,0.51-0.241,0.752-0.095c0.677,0.403,1.404,0.705,2.164,0.897c0.273,0.07,0.467,0.316,0.467,0.6v1.027
				c0,0.378,0.309,0.687,0.688,0.687h1.739c0.379,0,0.688-0.308,0.688-0.687v-1.028c0-0.283,0.189-0.529,0.465-0.599
				c0.392-0.101,0.773-0.229,1.137-0.379c0.316-0.13,0.678,0.02,0.809,0.335c0.131,0.316-0.02,0.678-0.334,0.809
				c-0.271,0.112-0.553,0.213-0.84,0.302v0.561C64.794,72.635,63.932,73.498,62.87,73.498z"/>
		</g>
		<path fill="#0C5394" d="M71.355,69.861l-4.231-4.23c1.746-2.456,1.524-5.882-0.679-8.084c-1.75-1.751-4.275-2.247-6.473-1.502
			l2.498,2.499c0.702,0.701,0.703,1.841,0,2.543l-1.384,1.383c-0.703,0.703-1.842,0.703-2.544,0l-2.498-2.497
			c-0.745,2.197-0.249,4.722,1.503,6.471c1.992,1.994,4.989,2.369,7.361,1.129l4.368,4.37c0.08,0.081,0.222,0.081,0.304-0.001
			l1.772-1.774c0.045-0.042,0.064-0.093,0.063-0.154C71.42,69.957,71.398,69.905,71.355,69.861z M65.539,65.539
			c-0.048,0.048-0.113,0.072-0.176,0.072s-0.127-0.024-0.174-0.072c-0.098-0.098-0.098-0.254,0-0.35
			c0.836-0.836,1.297-1.949,1.297-3.133s-0.461-2.297-1.297-3.134c-0.098-0.096-0.098-0.252,0-0.349c0.098-0.097,0.254-0.097,0.35,0
			c0.932,0.93,1.443,2.166,1.443,3.483C66.982,63.372,66.471,64.607,65.539,65.539z M69.445,70.031c-0.207,0.206-0.543,0.206-0.75,0
			c-0.209-0.209-0.209-0.546,0-0.752c0.207-0.207,0.543-0.207,0.75,0C69.65,69.486,69.65,69.822,69.445,70.031z"/>
	</g>
</g>
<g>
	<g>
		<g>
			<path fill="#0C5394" d="M12.87,73.499h-1.74c-1.061,0-1.924-0.863-1.924-1.924v-0.56c-0.554-0.172-1.091-0.395-1.604-0.666
				l-0.397,0.397c-0.75,0.75-1.971,0.75-2.722,0l-1.23-1.232c-0.363-0.363-0.564-0.846-0.564-1.361c0-0.513,0.201-0.996,0.565-1.359
				l0.395-0.397c-0.271-0.512-0.493-1.048-0.665-1.604h-0.56c-1.06,0-1.923-0.863-1.924-1.923v-1.741c0-0.514,0.2-0.999,0.564-1.362
				c0.364-0.362,0.845-0.562,1.357-0.562c0.001,0,0.002,0,0.003,0h0.559c0.172-0.555,0.395-1.091,0.667-1.604l-0.397-0.396
				c-0.749-0.751-0.75-1.972,0-2.723l1.23-1.231c0.728-0.726,1.997-0.726,2.722,0.001l0.397,0.397
				c0.513-0.272,1.049-0.495,1.604-0.667v-0.559c0-1.061,0.864-1.924,1.924-1.924h1.74c1.061,0,1.923,0.863,1.923,1.924v0.559
				c0.556,0.173,1.092,0.396,1.605,0.667l0.396-0.397c0.751-0.75,1.971-0.75,2.722,0l1.231,1.23
				c0.364,0.364,0.564,0.847,0.564,1.361c0,0.514-0.2,0.999-0.564,1.362l-0.397,0.396c0.272,0.513,0.495,1.049,0.667,1.604h0.559
				c1.061,0,1.925,0.863,1.925,1.923v1.74c0,1.062-0.864,1.924-1.924,1.924h-0.56c-0.112,0.37-0.235,0.708-0.376,1.026l-0.067,0.15
				c-0.139,0.312-0.504,0.452-0.816,0.313c-0.312-0.138-0.452-0.503-0.313-0.815l0.067-0.149c0.167-0.381,0.312-0.806,0.437-1.296
				c0.07-0.274,0.317-0.464,0.599-0.464h1.029c0.38,0,0.687-0.308,0.687-0.688v-1.74c0-0.379-0.307-0.687-0.688-0.687H20.55
				c-0.283,0-0.53-0.191-0.599-0.467c-0.195-0.761-0.497-1.489-0.899-2.164c-0.146-0.243-0.106-0.553,0.094-0.753l0.727-0.729
				c0.13-0.13,0.202-0.303,0.202-0.487c0-0.183-0.072-0.355-0.202-0.486l-1.23-1.23c-0.26-0.26-0.713-0.26-0.973,0l-0.729,0.727
				c-0.2,0.2-0.51,0.239-0.753,0.094c-0.675-0.401-1.403-0.704-2.165-0.899c-0.274-0.069-0.466-0.316-0.466-0.599v-1.027
				c0-0.38-0.307-0.688-0.687-0.688h-1.74c-0.38,0-0.688,0.308-0.688,0.688v1.027c0,0.283-0.192,0.529-0.467,0.599
				c-0.761,0.194-1.489,0.497-2.165,0.899c-0.242,0.146-0.553,0.106-0.753-0.094L6.33,54.126c-0.26-0.261-0.713-0.26-0.973,0
				l-1.231,1.229c-0.267,0.269-0.267,0.707,0.001,0.974l0.726,0.727c0.201,0.201,0.24,0.511,0.096,0.754
				c-0.404,0.675-0.705,1.403-0.898,2.164c-0.071,0.275-0.317,0.467-0.6,0.467H2.424c-0.172,0.001-0.356,0.07-0.485,0.2
				c-0.13,0.13-0.202,0.303-0.202,0.487v1.74c0,0.38,0.309,0.688,0.687,0.688h1.027c0.283,0,0.529,0.191,0.6,0.465
				c0.194,0.763,0.497,1.491,0.898,2.164c0.145,0.244,0.105,0.553-0.096,0.754l-0.726,0.727c-0.13,0.13-0.202,0.303-0.202,0.486
				c0,0.184,0.072,0.358,0.202,0.487l1.23,1.232c0.269,0.266,0.705,0.267,0.973-0.001l0.729-0.727c0.2-0.201,0.51-0.241,0.753-0.095
				c0.676,0.403,1.404,0.704,2.164,0.897c0.274,0.07,0.467,0.316,0.467,0.6v1.027c0,0.378,0.307,0.687,0.688,0.687h1.74
				c0.379,0,0.687-0.309,0.687-0.687v-1.028c0-0.283,0.191-0.529,0.465-0.599c0.393-0.101,0.775-0.229,1.137-0.379
				c0.316-0.13,0.678,0.02,0.809,0.335c0.13,0.316-0.02,0.678-0.334,0.809c-0.272,0.112-0.553,0.213-0.84,0.302v0.561
				C14.793,72.636,13.931,73.499,12.87,73.499z"/>
		</g>
		<path fill="#0C5394" d="M21.356,69.862l-4.232-4.23c1.746-2.457,1.524-5.882-0.679-8.085c-1.75-1.751-4.275-2.246-6.473-1.502
			l2.499,2.499c0.702,0.701,0.703,1.841,0,2.543l-1.385,1.383c-0.702,0.703-1.841,0.703-2.543,0l-2.499-2.497
			C5.3,62.17,5.795,64.695,7.547,66.445c1.992,1.994,4.989,2.369,7.362,1.129l4.369,4.37c0.081,0.08,0.221,0.081,0.303-0.001
			l1.774-1.774c0.043-0.042,0.064-0.093,0.063-0.154C21.42,69.958,21.399,69.906,21.356,69.862z M15.539,65.539
			c-0.049,0.048-0.113,0.072-0.175,0.072c-0.064,0-0.126-0.023-0.174-0.072c-0.097-0.098-0.097-0.254,0-0.35
			c0.837-0.837,1.297-1.95,1.297-3.133c0-1.185-0.46-2.297-1.297-3.135c-0.097-0.095-0.097-0.251,0-0.349
			c0.096-0.097,0.253-0.097,0.35,0c0.93,0.93,1.443,2.166,1.443,3.483C16.982,63.372,16.469,64.608,15.539,65.539z M19.445,70.032
			c-0.207,0.205-0.542,0.206-0.75,0c-0.208-0.209-0.208-0.546,0-0.752c0.208-0.207,0.543-0.207,0.75,0
			C19.652,69.487,19.652,69.823,19.445,70.032z"/>
	</g>
	<g>
		<path fill="#A5A5A4" d="M12.87,73.499h-1.741c-1.061,0-1.923-0.863-1.923-1.924v-0.56c-0.555-0.172-1.091-0.395-1.604-0.666
			l-0.397,0.397c-0.75,0.75-1.971,0.75-2.721,0.001l-1.232-1.233c-0.363-0.363-0.563-0.846-0.563-1.359
			c0-0.514,0.2-0.998,0.564-1.362l0.396-0.396c-0.271-0.512-0.493-1.048-0.666-1.604H2.424c-1.061,0-1.924-0.863-1.924-1.923v-1.741
			c0-0.515,0.2-0.998,0.564-1.36c0.363-0.364,0.845-0.563,1.357-0.563c0.001,0,0.002,0,0.003,0h0.558
			c0.172-0.555,0.396-1.091,0.667-1.604l-0.398-0.397c-0.749-0.749-0.749-1.971,0-2.722l1.231-1.23c0.728-0.727,1.996-0.727,2.722,0
			L7.6,53.648c0.514-0.271,1.051-0.493,1.605-0.665v-0.56c0-1.062,0.863-1.924,1.923-1.924h1.741c1.061,0,1.922,0.862,1.922,1.924
			v0.56c0.556,0.172,1.092,0.395,1.606,0.665l0.395-0.396c0.75-0.751,1.972-0.751,2.723,0l1.231,1.23
			c0.363,0.364,0.564,0.847,0.564,1.362c0,0.514-0.201,0.997-0.564,1.36l-0.397,0.397c0.271,0.513,0.494,1.049,0.667,1.604h0.558
			c1.061,0,1.925,0.863,1.925,1.923v1.741c0,1.061-0.863,1.923-1.924,1.923h-0.559c-0.112,0.371-0.236,0.708-0.377,1.026
			l-0.066,0.15c-0.139,0.312-0.504,0.451-0.817,0.313c-0.312-0.138-0.452-0.504-0.313-0.816l0.067-0.15
			c0.167-0.38,0.312-0.804,0.437-1.294c0.071-0.273,0.317-0.464,0.6-0.464h1.028c0.379,0,0.687-0.31,0.687-0.688v-1.741
			c0-0.378-0.308-0.687-0.688-0.687h-1.026c-0.283,0-0.529-0.192-0.599-0.465c-0.193-0.762-0.497-1.49-0.898-2.165
			c-0.146-0.243-0.106-0.554,0.095-0.754l0.727-0.727c0.13-0.13,0.202-0.302,0.202-0.486c0-0.184-0.072-0.356-0.202-0.487
			l-1.231-1.231c-0.26-0.26-0.712-0.26-0.972,0l-0.729,0.728c-0.2,0.201-0.51,0.239-0.754,0.094
			c-0.674-0.402-1.402-0.704-2.164-0.899c-0.275-0.069-0.466-0.316-0.466-0.599v-1.027c0-0.38-0.309-0.688-0.687-0.688h-1.741
			c-0.379,0-0.687,0.308-0.687,0.688v1.027c0,0.283-0.192,0.529-0.467,0.599c-0.762,0.195-1.49,0.497-2.165,0.899
			c-0.242,0.146-0.553,0.106-0.753-0.094L6.33,54.126c-0.26-0.26-0.713-0.26-0.972,0l-1.231,1.23c-0.267,0.269-0.268,0.707,0,0.974
			l0.728,0.727c0.2,0.2,0.239,0.511,0.094,0.754c-0.403,0.675-0.705,1.403-0.899,2.164c-0.069,0.274-0.316,0.467-0.599,0.467H2.424
			c-0.173,0.001-0.357,0.07-0.486,0.2c-0.13,0.13-0.201,0.303-0.201,0.487v1.741c0,0.378,0.309,0.688,0.687,0.688h1.027
			c0.283,0,0.529,0.191,0.599,0.465c0.195,0.763,0.497,1.491,0.899,2.163c0.146,0.244,0.106,0.556-0.094,0.755l-0.727,0.727
			c-0.13,0.131-0.202,0.302-0.202,0.487c0,0.184,0.072,0.356,0.202,0.486l1.23,1.231c0.268,0.269,0.705,0.269,0.972,0l0.728-0.728
			c0.2-0.2,0.511-0.238,0.754-0.093c0.675,0.403,1.403,0.704,2.164,0.897c0.274,0.07,0.467,0.316,0.467,0.6v1.027
			c0,0.379,0.307,0.687,0.687,0.687h1.741c0.378,0,0.687-0.308,0.687-0.687v-1.028c0-0.284,0.191-0.529,0.464-0.599
			c0.392-0.101,0.776-0.228,1.138-0.379c0.315-0.13,0.677,0.02,0.808,0.336c0.131,0.314-0.019,0.677-0.333,0.808
			c-0.272,0.112-0.553,0.213-0.84,0.302v0.561C14.792,72.636,13.931,73.499,12.87,73.499z"/>
		<path fill="#A5A5A4" d="M21.356,69.862l-4.232-4.229c1.746-2.458,1.524-5.883-0.679-8.086c-1.75-1.751-4.275-2.246-6.473-1.501
			l2.499,2.498c0.702,0.702,0.702,1.841,0,2.543l-1.386,1.385c-0.701,0.701-1.84,0.701-2.542,0l-2.498-2.499
			c-0.745,2.197-0.25,4.722,1.502,6.473c1.992,1.994,4.989,2.37,7.362,1.128l4.369,4.37c0.08,0.08,0.221,0.083,0.303-0.001
			l1.774-1.774c0.042-0.042,0.063-0.092,0.063-0.153C21.418,69.958,21.398,69.906,21.356,69.862z M15.539,65.539
			c-0.049,0.048-0.113,0.072-0.175,0.072c-0.064,0-0.126-0.023-0.174-0.072c-0.097-0.097-0.097-0.253,0-0.35
			c0.837-0.838,1.297-1.951,1.297-3.135c0-1.183-0.46-2.295-1.297-3.132c-0.097-0.097-0.097-0.253,0-0.35
			c0.096-0.097,0.253-0.097,0.35,0c0.93,0.929,1.443,2.167,1.443,3.482C16.982,63.371,16.469,64.609,15.539,65.539z M19.445,70.032
			c-0.208,0.205-0.542,0.206-0.75,0c-0.209-0.208-0.209-0.545-0.001-0.752c0.207-0.207,0.543-0.207,0.751,0
			C19.652,69.488,19.652,69.824,19.445,70.032z"/>
	</g>
</g>
<g>
	<g>
		<path fill="#A5A5A4" d="M21.964,0H8.638C7.517,0,6.603,0.913,6.603,2.036v8.446c0,1.122,0.914,2.036,2.035,2.036h2.005
			l0.001,3.664c0,0.003,0.001,0.007,0.001,0.011l-0.002,0.043c0,0.367,0.298,0.665,0.665,0.665c0.183,0,0.356-0.078,0.483-0.216
			l0.029-0.031c0.312-0.344,1.297-1.735,2.93-4.136h7.213c1.122,0,2.036-0.914,2.036-2.036V2.036C24,0.913,23.085,0,21.964,0z
			 M10.831,6.925c-0.609,0-1.104-0.494-1.104-1.103c0-0.608,0.495-1.101,1.104-1.101c0.607,0,1.102,0.493,1.102,1.101
			C11.933,6.431,11.438,6.925,10.831,6.925z M15.3,6.925c-0.608,0-1.102-0.494-1.102-1.103c0-0.608,0.494-1.101,1.102-1.101
			c0.609,0,1.104,0.493,1.104,1.101C16.404,6.431,15.909,6.925,15.3,6.925z M19.773,6.925c-0.609,0-1.103-0.494-1.103-1.103
			c0-0.608,0.494-1.101,1.103-1.101s1.102,0.493,1.102,1.101C20.875,6.431,20.382,6.925,19.773,6.925z"/>
	</g>
	<g>
		<g>
			<g>
				<g>
					<g>
						<g>
							<g>
								<path fill="#A5A5A4" d="M12.618,23.503c-0.392,0-0.763-0.189-0.993-0.505c-0.23-0.315-0.495-0.786-0.831-1.38
									c-0.391-0.692-0.878-1.555-1.431-2.368L2.28,19.251C1.023,19.251,0,18.228,0,16.97V8.524c0-1.257,1.023-2.281,2.281-2.281
									h2.358c0.271,0,0.491,0.22,0.491,0.491S4.91,7.226,4.639,7.226H2.281c-0.716,0-1.298,0.583-1.298,1.298v8.446
									c0,0.716,0.583,1.299,1.298,1.299h7.085c0.326,0,0.629,0.16,0.812,0.429c0.575,0.847,1.073,1.729,1.473,2.437
									c0.308,0.544,0.573,1.015,0.77,1.284c0.061,0.083,0.19,0.118,0.268,0.091c0.111-0.036,0.177-0.127,0.177-0.236v-3.023
									c0-0.542,0.44-0.982,0.982-0.982h1.759c0.716,0,1.299-0.583,1.299-1.299v-2.487c0-0.271,0.22-0.491,0.491-0.491
									c0.272,0,0.492,0.22,0.492,0.491v2.487c0,1.258-1.023,2.281-2.282,2.281h-1.759v3.023c0,0.535-0.341,1.004-0.85,1.168
									C12.882,23.482,12.752,23.503,12.618,23.503z"/>
							</g>
						</g>
					</g>
				</g>
			</g>
		</g>
	</g>
</g>
<g>
	<g>
		<path fill="#0C5394" d="M71.965-0.042H58.64c-1.121,0-2.035,0.913-2.035,2.036v8.446c0,1.122,0.914,2.036,2.035,2.036h2.004
			l0.002,3.664c0,0.003,0,0.007,0,0.011l-0.002,0.043c0,0.367,0.299,0.665,0.666,0.665c0.183,0,0.355-0.078,0.482-0.216l0.029-0.031
			c0.312-0.344,1.297-1.735,2.93-4.136h7.213c1.122,0,2.036-0.914,2.036-2.036V1.994C74.001,0.871,73.086-0.042,71.965-0.042z
			 M60.832,6.883c-0.608,0-1.104-0.494-1.104-1.103c0-0.608,0.496-1.101,1.104-1.101c0.606,0,1.103,0.493,1.103,1.101
			C61.935,6.389,61.438,6.883,60.832,6.883z M65.301,6.883c-0.608,0-1.102-0.494-1.102-1.103c0-0.608,0.493-1.101,1.102-1.101
			c0.609,0,1.104,0.493,1.104,1.101C66.405,6.389,65.91,6.883,65.301,6.883z M69.774,6.883c-0.609,0-1.104-0.494-1.104-1.103
			c0-0.608,0.494-1.101,1.104-1.101c0.608,0,1.102,0.493,1.102,1.101C70.876,6.389,70.383,6.883,69.774,6.883z"/>
	</g>
	<g>
		<g>
			<g>
				<g>
					<g>
						<g>
							<g>
								<path fill="#0C5394" d="M62.619,23.461c-0.392,0-0.763-0.189-0.993-0.505c-0.23-0.315-0.495-0.786-0.831-1.38
									c-0.392-0.692-0.878-1.555-1.431-2.368l-7.084,0.001c-1.256,0-2.279-1.023-2.279-2.281V8.482
									c0-1.257,1.023-2.281,2.281-2.281h2.357c0.271,0,0.491,0.22,0.491,0.491s-0.22,0.492-0.491,0.492h-2.357
									c-0.717,0-1.299,0.583-1.299,1.298v8.446c0,0.716,0.584,1.299,1.299,1.299h7.085c0.325,0,0.629,0.16,0.812,0.429
									c0.575,0.847,1.073,1.729,1.473,2.437c0.309,0.544,0.574,1.015,0.771,1.284c0.062,0.083,0.19,0.118,0.269,0.091
									c0.11-0.036,0.177-0.127,0.177-0.236v-3.023c0-0.542,0.44-0.982,0.981-0.982h1.76c0.716,0,1.299-0.583,1.299-1.299v-2.487
									c0-0.271,0.22-0.491,0.49-0.491c0.272,0,0.492,0.22,0.492,0.491v2.487c0,1.258-1.022,2.281-2.281,2.281h-1.76v3.023
									c0,0.535-0.341,1.004-0.85,1.168C62.883,23.44,62.753,23.461,62.619,23.461z"/>
							</g>
						</g>
					</g>
				</g>
			</g>
		</g>
	</g>
</g>
</svg>
