<?xml version="1.0" encoding="utf-8"?>
<!-- Generator: Adobe Illustrator 21.0.0, SVG Export Plug-In . SVG Version: 6.00 Build 0)  -->
<svg version="1.1" id="图层_1" xmlns="http://www.w3.org/2000/svg" xmlns:xlink="http://www.w3.org/1999/xlink" x="0px" y="0px"
	 viewBox="0 0 20 126.7" style="enable-background:new 0 0 20 126.7;" xml:space="preserve">
<style type="text/css">
	.st0{fill:#FFFFFF;}
	.st1{fill:none;}
	.st2{fill:#040000;}
	.st3{fill-rule:evenodd;clip-rule:evenodd;fill:#FFFFFF;}
</style>
<g>
	<g>
		<path class="st0" d="M8.1,16c-0.5,0-0.9-0.2-1.1-0.4l-0.8-0.9c-0.3-0.2-0.5-0.7-0.5-1.1c0-0.4,0.2-0.9,0.5-1.1l4.7-4.8l0.4,0.7
			C11.5,8.9,11.7,9,12,9.3c0.1,0.1,0.2,0.2,0.3,0.3l0.1,0.1c0.2,0.2,0.4,0.5,0.9,0.6l0.9,0.3l-4.9,5C9,15.9,8.5,16,8.1,16z
			 M10.7,9.7L7,13.4c-0.1,0.1-0.1,0.2-0.1,0.3c0,0.1,0.1,0.2,0.1,0.3l0.8,0.9c0,0,0.2,0.1,0.3,0.1c0.1,0,0.2-0.1,0.3-0.1l3.7-3.7
			c-0.2-0.2-0.4-0.4-0.6-0.5l-0.1-0.1c-0.1-0.1-0.2-0.2-0.3-0.2C11,10,10.8,9.9,10.7,9.7z"/>
	</g>
	<g>
		<path class="st0" d="M9,13.7c0.2-0.2,0.2-0.3,0.2-0.5c0-0.2,0-0.3-0.2-0.5c-0.2-0.2-0.3-0.2-0.5-0.2c-0.2,0-0.3,0-0.5,0.2
			c-0.2,0.2-0.2,0.3-0.2,0.5c0,0.2,0,0.3,0.2,0.5c0.2,0.2,0.3,0.2,0.5,0.2C8.7,13.9,8.8,13.9,9,13.7z"/>
	</g>
	<g>
		<path class="st0" d="M15.8,10c-1,0-2-0.4-3-1.2c-0.9-0.8-1.3-1.7-1.3-3.1c0-1,0.4-2,1.2-3l0,0c0.9-0.9,1.9-1.3,3-1.3
			c0.3,0,0.8,0,1.2,0.2c0.1,0,0.2,0.1,0.3,0.1c0.2,0.1,0.4,0.2,0.6,0.3c0.2,0.1,0.5,0.3,0.5,0.8c0,0.3-0.1,0.5-0.3,0.7L18,3.5
			l-2.1,1.2v1.1l0.9,0.5c0.1-0.1,0.2-0.1,0.4-0.2c0.2-0.1,0.4-0.2,0.6-0.3c0.2-0.1,0.4-0.2,0.5-0.3l0.1-0.1L19,5.1h0.2
			c0.4,0,0.6,0.2,0.7,0.5C19.9,5.7,20,5.9,20,6.1c0,0.3,0,0.7-0.2,1.1c-0.3,0.6-0.7,1.5-1.6,2C17.6,9.6,16.8,10,15.8,10z M13.6,3.5
			c-0.7,0.8-1,1.5-1,2.2c0,1,0.3,1.6,0.9,2.1c0.8,0.7,1.5,1,2.2,1c0.5,0,1-0.2,1.8-0.6c0.5-0.3,0.8-0.8,1.1-1.5l0,0c0,0,0-0.1,0-0.1
			c-0.2,0.1-0.3,0.2-0.5,0.3c-0.1,0.1-0.3,0.2-0.5,0.3c-0.4,0.3-0.7,0.4-0.7,0.5l-0.3,0.1l-2.1-1.1V4.1l2.2-1.3c0,0,0,0,0,0
			c-0.1-0.1-0.2-0.1-0.3-0.2c-0.2-0.1-0.5-0.1-0.7-0.1C15,2.6,14.3,2.9,13.6,3.5z"/>
	</g>
	<g>
		<path class="st1" d="M1.3,4.3v11.8c0,1.1,0.9,2,2,2h13.2c1.1,0,2-0.9,2-2V9.3L17.4,10l-5.3-6.7l1.7-0.9H4.5
			C2.2,2.4,1.3,3.3,1.3,4.3z"/>
	</g>
	<g>
		<circle class="st0" cx="3.5" cy="6.3" r="0.9"/>
	</g>
	<g>
		<circle class="st0" cx="6.1" cy="6.3" r="0.9"/>
	</g>
	<g>
		<circle class="st0" cx="8.6" cy="6.3" r="0.9"/>
	</g>
	<g>
		<path class="st0" d="M18.1,16.1c0,1.1-0.9,2-2,2H3.3c-1.1,0-2-0.9-2-2V4.3c0-1.1,0.9-2,2-2h7.5l1.1-1.3H3.3C1.5,1.1,0,2.5,0,4.3
			v11.8c0,1.8,1.5,3.3,3.3,3.3h12.8c1.8,0,3.3-1.5,3.3-3.3v-5.8l-1.3,0.7L18.1,16.1L18.1,16.1z"/>
	</g>
	<g>
		<path class="st2" d="M18.5,9.3"/>
	</g>
	<g>
		<path class="st2" d="M12.6,2.4"/>
	</g>
</g>
<g>
	<g>
		<path class="st0" d="M3.9,43.9c-1.1,0-2-0.9-2-2V29.3c0-1.1,0.9-2,2-2h12c1.1,0,2,0.9,2,2V35l1.3,1.1v-6.8c0-1.8-1.5-3.3-3.3-3.3
			h-12c-1.8,0-3.3,1.5-3.3,3.3v12.6c0,1.8,1.5,3.3,3.3,3.3h4.9L8,43.9L3.9,43.9L3.9,43.9z"/>
	</g>
	<g>
		<g>
			<path class="st0" d="M14.1,29.5H7.7c-0.4,0-0.7,0.3-0.7,0.7s0.3,0.7,0.7,0.7h6.4c0.4,0,0.7-0.3,0.7-0.7S14.5,29.5,14.1,29.5z"/>
		</g>
		<g>
			<path class="st0" d="M5.2,29.5H4.7c-0.4,0-0.7,0.3-0.7,0.7s0.3,0.7,0.7,0.7h0.5c0.4,0,0.7-0.3,0.7-0.7S5.6,29.5,5.2,29.5z"/>
		</g>
	</g>
	<g>
		<g>
			<path class="st0" d="M14.1,32.7H7.7C7.3,32.7,7,33,7,33.4c0,0.4,0.3,0.7,0.7,0.7h6.4c0.4,0,0.7-0.3,0.7-0.7
				C14.8,33,14.5,32.7,14.1,32.7z"/>
		</g>
		<g>
			<path class="st0" d="M5.2,32.7H4.7c-0.4,0-0.7,0.3-0.7,0.7c0,0.4,0.3,0.7,0.7,0.7h0.5c0.4,0,0.7-0.3,0.7-0.7S5.6,32.7,5.2,32.7z"
				/>
		</g>
	</g>
	<g>
		<g>
			<path class="st0" d="M9.8,36H7.7C7.3,36,7,36.2,7,36.6c0,0.4,0.3,0.7,0.7,0.7h1.1"/>
		</g>
		<g>
			<path class="st0" d="M5.2,36H4.7c-0.4,0-0.7,0.3-0.7,0.7c0,0.4,0.3,0.7,0.7,0.7h0.5c0.4,0,0.7-0.3,0.7-0.7
				C5.9,36.2,5.6,36,5.2,36z"/>
		</g>
	</g>
	<g>
		<path class="st0" d="M14.5,46c-2.7,0-5-2.2-5-5s2.2-5,5-5s5,2.2,5,5S17.2,46,14.5,46z M14.5,37.3c-2.1,0-3.8,1.7-3.8,3.8
			c0,2.1,1.7,3.8,3.8,3.8s3.8-1.7,3.8-3.8C18.3,39,16.6,37.3,14.5,37.3z"/>
	</g>
	<g>
		<rect x="13.9" y="40.3" class="st0" width="1.2" height="3.4"/>
	</g>
	<g>
		<rect x="13.9" y="38.4" class="st0" width="1.2" height="1"/>
	</g>
</g>
<g>
	<g>
		<g>
			<path class="st0" d="M2.6,68.4l0-2.9C1.1,65.2,0,63.9,0,62.4V56c0-1.7,1.4-3.2,3.2-3.2H13c1.7,0,3.2,1.4,3.2,3.2v6.4
				c0,1.7-1.4,3.2-3.2,3.2H7.6L2.6,68.4z M3.2,54.1c-1.1,0-1.9,0.9-1.9,1.9v6.4c0,1.1,0.9,1.9,1.9,1.9h0.6l0,1.9l3.4-1.9H13
				c1.1,0,1.9-0.9,1.9-1.9V56c0-1.1-0.9-1.9-1.9-1.9C13,54.1,3.2,54.1,3.2,54.1z"/>
		</g>
	</g>
	<g>
		<g>
			<g>
				<circle class="st0" cx="5.1" cy="59.2" r="0.8"/>
			</g>
		</g>
		<g>
			<g>
				<circle class="st0" cx="8.1" cy="59.2" r="0.8"/>
			</g>
		</g>
		<g>
			<g>
				<circle class="st0" cx="11.1" cy="59.2" r="0.8"/>
			</g>
		</g>
	</g>
	<g>
		<g>
			<path class="st0" d="M17.8,71.6l-4.4-2.5H8.7c-1.5,0-2.8-1.3-2.8-2.8v-1h1.2v1c0,0.9,0.7,1.6,1.6,1.6h5l2.9,1.6l0-1.6h0.6
				c0.9,0,1.6-0.7,1.6-1.6v-5.5c0-0.9-0.7-1.6-1.6-1.6h-1.9V58h1.9c1.5,0,2.8,1.3,2.8,2.8v5.5c0,1.3-0.9,2.5-2.2,2.7L17.8,71.6z"/>
		</g>
	</g>
</g>
<g>
	<g>
		<g>
			<g>
				<path class="st0" d="M13.1,104.6H3.8c-1.8,0-3.3,1.5-3.3,3.3v12.4c0,1.8,1.5,3.3,3.3,3.3h6.6c0.4,0,0.7-0.3,0.7-0.7
					c0-0.4-0.3-0.7-0.7-0.7H3.8c-1.1,0-2-0.9-2-2v-12.4c0-1.1,0.9-2,2-2h9.2c1.1,0,2,0.9,2,2v9.8c0,0.4,0.3,0.7,0.7,0.7
					c0.4,0,0.7-0.3,0.7-0.7v-9.8C16.4,106.1,14.9,104.6,13.1,104.6z"/>
			</g>
		</g>
		<g>
			<g>
				<path class="st0" d="M16.3,117.4c0.1,0.2,0,0.5-0.1,0.7l-5.3,5.3c-0.2,0.2-0.5,0.2-0.7,0.1c-0.2-0.1-0.4-0.3-0.4-0.6v-5.3
					c0-0.4,0.3-0.7,0.7-0.7h5.3C16,117,16.2,117.2,16.3,117.4z M11.1,121.3l3-3h-3V121.3z"/>
			</g>
		</g>
	</g>
	<g>
		<g>
			<g>
				<path class="st0" d="M16.2,108.9c1.1,0,2,0.9,2,2v11.7c0,1.1-0.9,2-2,2H6.9c-1.1,0-2-0.9-2-2H3.6c0,1.8,1.5,3.3,3.3,3.3h9.2
					c1.8,0,3.3-1.5,3.3-3.3v-11.7c0-1.8-1.5-3.3-3.3-3.3"/>
			</g>
		</g>
	</g>
	<g>
		<path class="st0" d="M11.8,113.7H5.2c-0.4,0-0.7,0.3-0.7,0.7c0,0.4,0.3,0.7,0.7,0.7h6.6c0.4,0,0.7-0.3,0.7-0.7
			C12.4,114,12.1,113.7,11.8,113.7z"/>
	</g>
	<g>
		<path class="st0" d="M11.8,111.1H5.2c-0.4,0-0.7,0.3-0.7,0.7c0,0.4,0.3,0.7,0.7,0.7h6.6c0.4,0,0.7-0.3,0.7-0.7
			C12.4,111.4,12.1,111.1,11.8,111.1z"/>
	</g>
	<g>
		<path class="st0" d="M11.8,108.4H5.2c-0.4,0-0.7,0.3-0.7,0.7c0,0.4,0.3,0.7,0.7,0.7h6.6c0.4,0,0.7-0.3,0.7-0.7
			C12.4,108.7,12.1,108.4,11.8,108.4z"/>
	</g>
</g>
<g>
	<g>
		<g>
			<path class="st3" d="M1.6,83.8h2.7c0.5,0,0.9-0.4,0.9-0.9c0-0.5-0.4-0.9-0.9-0.9H1.6c-0.5,0-0.9,0.4-0.9,0.9
				C0.7,83.4,1.1,83.8,1.6,83.8z M4.3,87.3H1.6c-0.5,0-0.9,0.4-0.9,0.9c0,0.5,0.4,0.9,0.9,0.9h2.7c0.5,0,0.9-0.4,0.9-0.9
				C5.2,87.7,4.8,87.3,4.3,87.3z M4.3,92.3H1.6c-0.5,0-0.9,0.4-0.9,0.9c0,0.5,0.4,0.9,0.9,0.9h2.7c0.5,0,0.9-0.4,0.9-0.9
				C5.2,92.7,4.8,92.3,4.3,92.3z"/>
		</g>
	</g>
	<g>
		<polygon class="st0" points="15.1,82.2 13.9,81.5 13.9,78.8 15.1,78.8 		"/>
	</g>
	<g>
		<polygon class="st0" points="3.7,86.5 2.5,86.5 2.5,84.7 3.7,84.7 		"/>
	</g>
	<g>
		<polygon class="st0" points="3.7,91.6 2.5,91.6 2.5,89.8 3.7,89.8 		"/>
	</g>
	<g>
		<polygon class="st0" points="15.1,97 13.9,97 13.9,93.5 15.1,92.1 		"/>
	</g>
	<g>
		<g>
			<path class="st0" d="M3.7,95c0,0.9,0.7,1.6,1.6,1.6h11.3c0.9,0,1.6-0.7,1.6-1.6V81.1c0-0.9-0.7-1.6-1.6-1.6H5.2
				c-0.9,0-1.6,0.7-1.6,1.6H2.5c0-1.5,1.2-2.8,2.8-2.8h11.3c1.5,0,2.8,1.2,2.8,2.8V95c0,1.5-1.2,2.8-2.8,2.8H5.2
				c-1.5,0-2.8-1.2-2.8-2.8H3.7z"/>
		</g>
	</g>
	<g>
		<g>
			<polygon class="st0" points="11.4,93.4 6.9,93.4 6.9,88.9 8.1,88.9 8.1,92.2 11.4,92.2 			"/>
		</g>
		<g>
			<g>
				<path class="st0" d="M11.4,93.4l-0.8-0.8l4.6-4.6c0.3-0.3,0.5-0.8,0.5-1.3c0-0.5-0.2-0.9-0.5-1.3l-0.2-0.2
					c-0.7-0.7-1.8-0.7-2.5,0l-4.6,4.6l-0.8-0.8l4.6-4.6c1.2-1.2,3.1-1.2,4.2,0l0.2,0.2c0.6,0.6,0.9,1.3,0.9,2.1
					c0,0.8-0.3,1.5-0.9,2.1L11.4,93.4z"/>
			</g>
			<g>
				
					<rect x="12.6" y="84.6" transform="matrix(0.7071 -0.7072 0.7072 0.7071 -57.5664 34.7626)" class="st0" width="1.2" height="4.5"/>
			</g>
			<g>
				<path class="st0" d="M10.2,90.2c-0.2,0-0.3-0.1-0.4-0.2c-0.2-0.2-0.2-0.6,0-0.8l1.3-1.3c0.2-0.2,0.6-0.2,0.8,0
					c0.2,0.2,0.2,0.6,0,0.8L10.6,90C10.5,90.1,10.3,90.2,10.2,90.2z"/>
			</g>
		</g>
	</g>
</g>
</svg>
