<?xml version="1.0" encoding="utf-8"?>
<!-- Generator: Adobe Illustrator 15.0.0, SVG Export Plug-In . SVG Version: 6.00 Build 0)  -->
<!DOCTYPE svg PUBLIC "-//W3C//DTD SVG 1.1//EN" "http://www.w3.org/Graphics/SVG/1.1/DTD/svg11.dtd">
<svg version="1.1" id="图层_1" xmlns="http://www.w3.org/2000/svg" xmlns:xlink="http://www.w3.org/1999/xlink" x="0px" y="0px"
	 width="50px" height="50px" viewBox="0 0 50 50" enable-background="new 0 0 50 50" xml:space="preserve">
<rect x="30" y="30" fill="none" width="20" height="20"/>
<g>
	<circle fill-rule="evenodd" clip-rule="evenodd" fill="#FFB000" cx="40" cy="40" r="10"/>
</g>
<g>
	<path fill="#FFFFFF" d="M44.723,45.177h-9c-0.758,0-1.375-0.617-1.375-1.375v-7c0-0.759,0.617-1.375,1.375-1.375h9
		c0.759,0,1.375,0.616,1.375,1.375v7C46.098,44.56,45.481,45.177,44.723,45.177z M35.723,36.177c-0.345,0-0.625,0.28-0.625,0.625v7
		c0,0.345,0.28,0.625,0.625,0.625h9c0.345,0,0.625-0.28,0.625-0.625v-7c0-0.345-0.28-0.625-0.625-0.625H35.723z"/>
</g>
<g>
	<path fill="#FFFFFF" d="M37.223,37.177c-0.207,0-0.375-0.168-0.375-0.375v-2c0-0.207,0.168-0.375,0.375-0.375
		s0.375,0.168,0.375,0.375v2C37.598,37.009,37.43,37.177,37.223,37.177z"/>
</g>
<g>
	<path fill="#FFFFFF" d="M43.223,37.177c-0.207,0-0.375-0.168-0.375-0.375v-2c0-0.207,0.168-0.375,0.375-0.375
		s0.375,0.168,0.375,0.375v2C43.598,37.009,43.43,37.177,43.223,37.177z"/>
</g>
<g>
	<path fill="#FFFFFF" d="M45.723,39.177h-11c-0.207,0-0.375-0.168-0.375-0.375s0.168-0.375,0.375-0.375h11
		c0.207,0,0.375,0.168,0.375,0.375S45.93,39.177,45.723,39.177z"/>
</g>
<g>
	<g>
		<path fill="#FFFFFF" d="M37.723,40.802c0,0.275-0.225,0.5-0.5,0.5s-0.5-0.225-0.5-0.5c0-0.276,0.225-0.5,0.5-0.5
			S37.723,40.525,37.723,40.802"/>
	</g>
	<g>
		<path fill="#FFFFFF" d="M37.723,42.802c0,0.275-0.225,0.5-0.5,0.5s-0.5-0.225-0.5-0.5c0-0.276,0.225-0.5,0.5-0.5
			S37.723,42.525,37.723,42.802"/>
	</g>
	<g>
		<path fill="#FFFFFF" d="M39.723,42.802c0,0.275-0.225,0.5-0.5,0.5s-0.5-0.225-0.5-0.5c0-0.276,0.225-0.5,0.5-0.5
			S39.723,42.525,39.723,42.802"/>
	</g>
	<g>
		<path fill="#FFFFFF" d="M39.723,40.802c0,0.275-0.225,0.5-0.5,0.5s-0.5-0.225-0.5-0.5c0-0.276,0.225-0.5,0.5-0.5
			S39.723,40.525,39.723,40.802"/>
	</g>
	<g>
		<path fill="#FFFFFF" d="M41.723,40.802c0,0.275-0.225,0.5-0.5,0.5s-0.5-0.225-0.5-0.5c0-0.276,0.225-0.5,0.5-0.5
			S41.723,40.525,41.723,40.802"/>
	</g>
	<g>
		<path fill="#FFFFFF" d="M41.723,42.802c0,0.275-0.225,0.5-0.5,0.5s-0.5-0.225-0.5-0.5c0-0.276,0.225-0.5,0.5-0.5
			S41.723,42.525,41.723,42.802"/>
	</g>
	<g>
		<path fill="#FFFFFF" d="M43.723,42.802c0,0.275-0.225,0.5-0.5,0.5s-0.5-0.225-0.5-0.5c0-0.276,0.225-0.5,0.5-0.5
			S43.723,42.525,43.723,42.802"/>
	</g>
	<g>
		<path fill="#FFFFFF" d="M43.723,40.802c0,0.275-0.225,0.5-0.5,0.5s-0.5-0.225-0.5-0.5c0-0.276,0.225-0.5,0.5-0.5
			S43.723,40.525,43.723,40.802"/>
	</g>
</g>
<g>
	<circle fill-rule="evenodd" clip-rule="evenodd" fill="#FFB000" cx="10" cy="40" r="10"/>
</g>
<g>
	<path fill-rule="evenodd" clip-rule="evenodd" fill="#FFFFFF" d="M10.389,34.433v-0.023H9.886v2.259h0.503v-1.731
		c2.537,0.252,4.52,2.393,4.52,4.996c0,2.772-2.248,5.021-5.022,5.021c-2.773,0-5.021-2.249-5.021-5.021
		c0-1.387,0.563-2.642,1.472-3.551L5.98,36.026c-1,0.999-1.618,2.381-1.618,3.906c0,3.051,2.474,5.523,5.523,5.523
		c3.052,0,5.524-2.473,5.524-5.523C15.41,37.052,13.203,34.687,10.389,34.433 M10.325,40.854c0.3-0.167,0.403-0.539,0.229-0.83
		c-0.032-0.054-0.074-0.098-0.119-0.139l-2.308-2.715l1.274,3.292c0.014,0.059,0.033,0.115,0.065,0.17
		C9.641,40.923,10.025,41.022,10.325,40.854"/>
</g>
<rect y="30" fill="none" width="20" height="20"/>
<g>
	<circle fill-rule="evenodd" clip-rule="evenodd" fill="#FFB000" cx="40" cy="10" r="10"/>
</g>
<g id="Thumb_up_2_">
	<g>
		<path fill="#FFFFFF" d="M41.646,15.031c-0.854,0-1.928-0.205-2.639-0.341l-0.319-0.06c-0.729-0.135-2.45-0.383-3.145-0.383
			c-0.066,0-0.12,0-0.159,0.008c-0.037,0.007-0.077,0.009-0.111,0.008c-0.242-0.01-0.911,0-1.278-2.974
			c-0.179-1.439-0.044-2.051,0.479-2.182c0.179-0.045,0.439-0.087,0.731-0.134c0.506-0.082,1.137-0.183,1.493-0.338
			c0.23-0.101,0.853-0.832,1.264-1.316c0.51-0.6,0.991-1.166,1.372-1.427c1.116-0.767,1.409-1.511,1.604-2.003
			c0.144-0.364,0.307-0.776,0.787-0.832c0.02-0.002,0.038-0.003,0.058-0.003c0.825,0,1.257,0.943,1.257,1.875
			c0,0.561-0.272,0.967-0.562,1.397c-0.223,0.331-0.475,0.707-0.652,1.233c-0.002,0.006-0.004,0.011-0.005,0.016
			c0.161,0.079,0.597,0.135,0.894,0.173c0.201,0.026,0.408,0.053,0.613,0.088c0.873,0.149,1.184,0.709,1.184,1.184
			c0,0.383-0.103,0.67-0.247,0.881c0.184,0.244,0.306,0.581,0.243,1.023c-0.063,0.443-0.27,0.749-0.504,0.949
			c0.087,0.202,0.137,0.447,0.105,0.728c-0.054,0.475-0.345,0.808-0.616,1.002c-0.044,0.344-0.182,0.871-0.611,1.156
			C42.603,14.945,42.21,15.031,41.646,15.031z M35.543,13.248c0.818,0,2.685,0.281,3.325,0.398l0.327,0.063
			c0.673,0.128,1.69,0.322,2.45,0.322c0.499,0,0.654-0.086,0.68-0.104c0.113-0.075,0.187-0.424,0.186-0.621
			c-0.001-0.204,0.122-0.389,0.312-0.466l0,0c0,0,0.266-0.121,0.291-0.353c0.027-0.238-0.133-0.372-0.151-0.387
			c-0.156-0.124-0.23-0.333-0.179-0.525c0.051-0.192,0.206-0.341,0.403-0.37c0.056-0.012,0.281-0.084,0.329-0.422
			c0.044-0.309-0.173-0.394-0.217-0.407c-0.219-0.07-0.362-0.281-0.347-0.511c0.016-0.23,0.187-0.42,0.414-0.458
			c0.017-0.007,0.144-0.069,0.144-0.387c0-0.095-0.183-0.169-0.353-0.198c-0.191-0.033-0.385-0.058-0.571-0.082
			c-0.724-0.093-1.35-0.173-1.644-0.645c-0.105-0.168-0.202-0.454-0.065-0.856c0.221-0.653,0.525-1.106,0.77-1.471
			c0.257-0.383,0.392-0.595,0.392-0.84c0-0.318-0.076-0.572-0.151-0.725c-0.007,0.018-0.014,0.035-0.02,0.051
			c-0.225,0.569-0.6,1.521-1.968,2.46c-0.271,0.186-0.752,0.751-1.177,1.25c-0.736,0.866-1.213,1.405-1.625,1.584
			c-0.473,0.207-1.173,0.319-1.735,0.41c-0.159,0.026-0.309,0.049-0.437,0.073c-0.077,0.655,0.25,2.627,0.534,3.215
			C35.486,13.248,35.514,13.248,35.543,13.248z"/>
	</g>
</g>
<rect x="30" fill="none" width="20" height="20"/>
<g>
	<circle fill-rule="evenodd" clip-rule="evenodd" fill="#FFB000" cx="10" cy="10" r="10"/>
</g>
<g>
	<g>
		<g>
			<path fill="#FFFFFF" d="M7.212,7.472h5.27c0.219,0,0.395-0.176,0.395-0.394s-0.176-0.395-0.395-0.395h-5.27
				c-0.218,0-0.395,0.177-0.395,0.395S6.995,7.472,7.212,7.472z"/>
		</g>
	</g>
	<g>
		<g>
			<path fill="#FFFFFF" d="M7.212,9.014h5.27c0.219,0,0.395-0.175,0.395-0.394c0-0.217-0.176-0.394-0.395-0.394h-5.27
				c-0.218,0-0.395,0.177-0.395,0.394C6.818,8.839,6.995,9.014,7.212,9.014z"/>
		</g>
	</g>
	<g>
		<g>
			<path fill="#FFFFFF" d="M7.212,10.557h5.27c0.219,0,0.395-0.176,0.395-0.394s-0.176-0.395-0.395-0.395h-5.27
				c-0.218,0-0.395,0.177-0.395,0.395S6.995,10.557,7.212,10.557z"/>
		</g>
	</g>
	<g>
		<g>
			<path fill="#FFFFFF" d="M7.212,12.1h5.27c0.219,0,0.395-0.177,0.395-0.395s-0.176-0.395-0.395-0.395h-5.27
				c-0.218,0-0.395,0.177-0.395,0.395S6.995,12.1,7.212,12.1z"/>
		</g>
	</g>
	<g>
		<g>
			<path fill="#FFFFFF" d="M7.212,13.642h2.709c0.219,0,0.395-0.177,0.395-0.394c0-0.218-0.176-0.395-0.395-0.395H7.212
				c-0.218,0-0.395,0.177-0.395,0.395C6.818,13.465,6.995,13.642,7.212,13.642z"/>
		</g>
	</g>
	<g>
		<g>
			<path fill="#FFFFFF" d="M13.426,4.977H6.269c-0.326,0-0.591,0.266-0.591,0.592v9.24c0,0.326,0.265,0.592,0.591,0.592h7.157
				c0.326,0,0.592-0.266,0.592-0.592v-9.24C14.018,5.242,13.752,4.977,13.426,4.977z M13.229,14.612H6.466V5.765h6.762V14.612z"/>
		</g>
	</g>
</g>
<rect fill="none" width="20" height="20"/>
</svg>
